<?xml version="1.0" encoding="utf-8"?>
<!-- Generator: Adobe Illustrator 24.0.1, SVG Export Plug-In . SVG Version: 6.00 Build 0)  -->
<svg version="1.1" xmlns="http://www.w3.org/2000/svg" xmlns:xlink="http://www.w3.org/1999/xlink" x="0px" y="0px"
	 viewBox="0 0 500 500" style="enable-background:new 0 0 500 500;" xml:space="preserve">
<style type="text/css">
	.st0{fill:#FFFFFF;}
	.st1{fill:#E0D5F8;}
	.st2{fill:#9C78ED;}
	.st3{fill:#7846D1;}
	.st4{fill:#5B23A9;}
	.st5{fill:#403657;}
	.st6{fill:#FFA681;}
	.st7{fill:#F97853;}
	.st8{fill:#EA5143;}
	.st9{fill:#6020BD;}
	.st10{fill:#1A0B42;}
	.st11{fill:#614C6E;}
	.st12{opacity:0.5;}
	.st13{fill:#112129;}
</style>
<g id="BACKGROUND">
	<rect class="st0" width="500" height="500"/>
</g>
<g id="OBJECTS">
	<g>
		<path class="st1" d="M218.39,165.49c-15.37-55.76-84.63-73.72-124.33-32.05c-0.57,0.6-1.14,1.21-1.71,1.83
			c-56.91,61.86-30.02,214.3,88.74,252.94c118.76,38.64,242.29-31.92,249.23-94.99c6.94-63.07-47.85-82.89-132.88-65.25
			C249.4,237.93,227.96,200.2,218.39,165.49z"/>
		<path class="st1" d="M317.18,175.03c-15.89,2.59-20.29,16.66-8.02,26.65c4.06,3.3,9.85,6.04,18.1,7.41
			c31.43,5.21,48.11-8.69,35.51-26.72C354.99,171.24,332.93,172.46,317.18,175.03z"/>
		<path class="st1" d="M71.27,288.97c-7.8-14.08-22.54-13.47-27.8,1.45c-1.74,4.93-2.36,11.31-0.86,19.54
			c5.71,31.34,24.43,42.34,37.14,24.4C87.6,323.28,79,302.93,71.27,288.97z"/>
		<path class="st1" d="M441.53,300.55c-1.46,7.66,4.86,13.09,12.03,10.14c2.37-0.98,4.76-2.86,6.89-6.17c8.1-12.6,4-23.41-7.28-22.3
			C446.21,282.9,442.98,292.95,441.53,300.55z"/>
		<path class="st1" d="M401.36,219.68c7.64,1.59,13.17-4.64,10.34-11.86c-0.94-2.39-2.78-4.81-6.05-6.99
			c-12.46-8.31-23.34-4.4-22.42,6.9C383.79,214.7,393.79,218.1,401.36,219.68z"/>
		<path class="st1" d="M215.74,137.68c6.05,4.93,13.83,1.94,14.64-5.77c0.27-2.55-0.25-5.55-2.15-8.99
			c-7.24-13.12-18.7-14.64-23.08-4.19C202.43,125.18,209.74,132.79,215.74,137.68z"/>
	</g>
	<g>
		<g>
			<path class="st2" d="M457.56,412.87c2.62,0.44,5.36-0.3,7.19-2.23c1.19-1.26,2-2.81,2-4.3c0-0.02,0-0.04,0-0.06
				c-0.03-10.69,13.1-9.98,17.31-23.05c4.22-13.07-12.44-14.17-21.96-6.1c-6.84,5.8-15.05-2.3-25,4.46
				c-8.64,5.87-3.83,20.33-17.99,15.81c-4.52-1.45-8.57-0.05-11.99,2.51c-3.93,2.95-6.5,7.09-7.56,11.59l1.13,0.8
				C428.62,429.43,441.2,410.14,457.56,412.87z"/>
			<g>
				<path class="st3" d="M429.88,412.3l37.04-23.77c0.5-0.32,0.64-0.98,0.32-1.47c-0.32-0.5-0.98-0.64-1.47-0.32l-39.83,25.57
					H429.88z"/>
			</g>
		</g>
		<g>
			<g>
				<path class="st4" d="M427.88,341.57c-1.56-23.3-1.82-47.74-0.09-63.94c2.27-21.17,7.39-35.9,15.23-43.79
					c0.52-0.52,1.37-0.53,1.89-0.01c0.52,0.52,0.53,1.37,0.01,1.89c-13.71,13.8-18.64,50.84-14.29,107.21L427.88,341.57z"/>
			</g>
			<path class="st3" d="M431.39,258.93c0,0-11.16-0.02-10.37-19.65C421.02,239.29,438.1,244.16,431.39,258.93z"/>
			<path class="st3" d="M430.45,269.03c0,0-0.6-11.15,19.04-11.44C449.49,257.59,445.57,274.91,430.45,269.03z"/>
			<path class="st3" d="M438.99,241.5c0,0-4.29-10.31,14.13-17.14C453.12,224.36,455.21,242,438.99,241.5z"/>
			<path class="st3" d="M427.94,289.29c0,0-10.51,3.76-16.4-14.98C411.54,274.3,429.27,273.11,427.94,289.29z"/>
			<path class="st3" d="M428.55,299.72c0,0-2.52-10.88,16.77-14.56C445.32,285.15,444.46,302.9,428.55,299.72z"/>
			<path class="st3" d="M427.96,314.08c0,0-10.44,3.96-16.68-14.67C411.28,299.41,428.97,297.89,427.96,314.08z"/>
		</g>
		<g>
			<path class="st3" d="M103.98,393.51l-3.04-0.12l-1.61-0.06l-4.57-0.18c0,0-42.24-71.71-15.78-95.09
				c8.15-7.2,22.39-1.23,19.24,31.86C95.3,360.58,103.98,393.51,103.98,393.51z"/>
			<g>
				<path class="st4" d="M100.94,393.39l-1.61-0.06c-7.37-17.37-11.1-36.04-12.94-49.14c-2.19-15.55-2.3-26.85-2.3-26.96
					c0-0.4,0.32-0.73,0.72-0.73c0.4,0,0.73,0.32,0.74,0.72c0,0.11,0.1,11.33,2.29,26.79C89.69,357.17,93.45,375.99,100.94,393.39z"
					/>
			</g>
		</g>
		<g>
			<path class="st2" d="M112.37,407.87l-4.13,1.53l-2.19,0.81l-6.21,2.3c0,0-96.39-72.28-74.07-118.27
				C32.65,280.1,55,280.14,69.23,326.1C82.42,368.71,112.37,407.87,112.37,407.87z"/>
			<g>
				<path class="st3" d="M108.24,409.41l-2.19,0.81c-19.53-19.11-34.91-41.97-44.68-58.45c-11.6-19.56-18.03-34.6-18.09-34.75
					c-0.23-0.54,0.02-1.16,0.56-1.38c0.54-0.23,1.16,0.02,1.39,0.56c0.06,0.15,6.45,15.08,17.98,34.53
					C73.03,367.28,88.54,390.33,108.24,409.41z"/>
			</g>
		</g>
		<g>
			<path class="st3" d="M441.87,411.96c-0.05-1.67-0.24-3.35-0.61-5.02c-3.47-15.86,5.96-18.86,18.39-23.87
				c12.43-5.01,13.91-19.89,5.1-32.26c-8.8-12.37,7.01-22.31,1.19-40.93c-5.82-18.61-26.05-6.23-30.48,10.93
				c-3.18,12.34-19.35,9.67-25.34,25.67c-5.2,13.89,12.23,26.72-7.9,33.09c-6.43,2.03-9.99,6.97-11.85,12.74
				c-2.14,6.65-1.72,13.55,0.72,19.64H441.87z"/>
			<g>
				<path class="st4" d="M417.24,411.96l33.16-81.87c0.31-0.78-0.06-1.66-0.84-1.97c-0.78-0.31-1.66,0.06-1.97,0.84l-33.62,83.01
					H417.24z"/>
			</g>
		</g>
	</g>
	<g>
		<path class="st5" d="M140.91,164.44c0,0,0.7-14.74-8.27-17.57c-13.96-4.41-17.85,2.83-20,7.62c-2.76,6.13-1.58,18.16,6.74,19.32
			C131.82,175.54,140.14,168.56,140.91,164.44z"/>
		<path class="st5" d="M149.9,213.73c7.26,0,13.52-5.08,15.01-12.19c1.07-5.11,2.12-9.64,2.12-12.19v-0.07
			c0.07-0.8,0.1-1.61,0.11-2.4c0.1-11.63-7.08-32.87-32.3-29.5c0,0-20.93,2.39-23.31,22.84c0,0-0.99,9.43-1.65,16.27
			c-0.01,0.12-0.02,0.24-0.04,0.36c-0.92,9.03,6.18,16.87,15.26,16.87H149.9z"/>
		<g>
			<g>
				<path class="st3" d="M179.85,238.04c0,0,4.46,35.33,9.55,53.47c0,0,7.24-3.37,16.71-7.95c10.27-4.96,25.04-14.02,25.04-14.02
					l3.73,8.99c0,0-38.15,36-50.78,38.04c-12.64,2.04-20.38-43.2-20.38-43.2L179.85,238.04z"/>
				<path class="st6" d="M230.37,270.6c0,0-1.05-5.02,1.2-8.42c2.25-3.4,5.67-9.76,9.68-11.08c3.36-1.11-1.6,4.56-1.74,8.16
					c0,0,5-0.63,8.6-1.8c3.17-1.03,9.44-2.31,12.35-2.89c0.8-0.16,1.31,0.85,0.7,1.38c-0.99,0.86-3.07,1.94-7.35,2.97
					c0,0,10.45-1.98,11.53-0.38c1.08,1.6-12.02,3.83-12.02,3.83s10.17-0.6,10.44,0.99c0.16,0.97-10.38,3.2-10.38,3.2
					s9.62,0.26,7.29,1.78c-0.68,0.44-19.29,2.54-25.77,10.19C234.88,278.54,230.52,274.03,230.37,270.6z"/>
			</g>
		</g>
		<g>
			<g>
				<path class="st3" d="M115.53,231.08c0,0-21.34,6.29-39.72,10.44c0,0-0.48-7.97-0.96-18.48c-0.52-11.4,0.42-28.69,0.42-28.69
					l-9.68,0.99c0,0-13.52,50.68-9.3,62.76c4.22,12.08,57.78-4.84,57.78-4.84L115.53,231.08z"/>
				<path class="st6" d="M74.71,195.54c0,0,4.91-1.47,6.83-5.06c1.92-3.59,7.22-10.82,3.95-13.5c-1.19-0.98-2.06,3.29-5.15,5.13
					c0,0-1.83-4.69-2.51-8.42c-0.6-3.28-2.46-9.41-3.34-12.24c-0.24-0.78-1.37-0.75-1.54,0.04c-0.28,1.28-0.25,3.62,0.88,7.88
					c0,0-3.23-10.13-5.15-10.32c-1.92-0.19,2.35,12.4,2.35,12.4s-4.31-9.23-5.84-8.71c-0.93,0.32,2.12,10.65,2.12,10.65
					s-4.8-8.34-5.03-5.57c-0.07,0.81,6.95,18.18,3.3,27.52C65.58,195.34,71.62,197.04,74.71,195.54z"/>
			</g>
		</g>
		<g>
			<g>
				<path class="st2" d="M179.05,374.93l0.17,0.75c-16.62,11.25-78.77,3.57-78.77,3.57c0.11-1.3,0.25-2.67,0.43-4.08
					c0.19-1.57,0.43-3.2,0.71-4.88c0.75-4.52,1.76-9.42,2.89-14.45c0.36-1.58,0.73-3.19,1.11-4.81c1.12-4.81,2.32-9.68,3.45-14.42
					c0.39-1.63,0.77-3.24,1.15-4.84c0.52-2.22,1.01-4.41,1.48-6.52c0.61-2.82,1.16-5.52,1.62-8.07c0.31-1.71,0.58-3.36,0.78-4.92
					c0.24-1.65,0.4-3.21,0.5-4.66c-0.99-3.65-1.91-7.23-2.77-10.7c-0.43-1.77-0.85-3.49-1.26-5.2c-1.28-5.47-2.4-10.67-3.38-15.54
					c-0.35-1.77-0.69-3.49-1-5.17c-1.09-5.75-1.96-10.95-2.67-15.48c-0.27-1.81-0.53-3.5-0.75-5.09c-0.25-1.74-0.46-3.35-0.65-4.82
					c-0.83-6.43-1.12-10.08-1.12-10.08c0.15-0.12,0.3-0.23,0.46-0.34c1.89-1.34,4.83-2.6,8.11-3.72c3.46-1.19,7.28-2.22,10.65-3.03
					c0.51-0.12,1.01-0.24,1.5-0.36c4.43-1.04,7.74-1.64,7.74-1.64c15.07,3.16,19.37,1.13,19.37,1.13l7.66,2.26l0.9,0.32l5.58,1.96
					l0.23,0.08l10.01,3.52l6.68,2.34L177.25,250l-1.13,5.22l-3.41,15.74l-1.12,5.2l-3.4,15.68l-1.12,5.15l-2.81,12.99l0.56,2.48
					l1.1,4.82l1.74,7.66l1.58,6.93l1.09,4.8l3.28,14.44l1.09,4.77l3.25,14.28L179.05,374.93z"/>
				<path class="st6" d="M157.35,230.13c-1.6,9.42-6.17,18.9-15.67,19.92c-11.47,1.24-17.42-13.15-20.01-21.99
					c4.43-1.04,9.02-2.05,9.02-2.05c15.07,3.16,17.98,1.23,17.98,1.23l7.77,2.56L157.35,230.13z"/>
				<g>
					<path class="st0" d="M140.51,242.14c-12.02,0-14.9-14.85-14.93-15c-0.06-0.32,0.15-0.63,0.48-0.69
						c0.32-0.06,0.63,0.15,0.69,0.47c0.11,0.6,2.84,14.61,14.46,14.01c10.17-0.51,10.77-11.8,10.79-12.28
						c0.01-0.33,0.29-0.58,0.62-0.57c0.33,0.01,0.58,0.29,0.57,0.62c-0.01,0.13-0.66,12.85-11.91,13.42
						C141.01,242.13,140.76,242.14,140.51,242.14z"/>
				</g>
				<path class="st3" d="M118.94,238.04c0,1.62-1.31,2.93-2.93,2.93s-2.93-1.31-2.93-2.93s1.31-2.93,2.93-2.93
					S118.94,236.42,118.94,238.04z"/>
				<path class="st3" d="M113.06,252.36c0,1.62-1.31,2.93-2.93,2.93c-1.62,0-2.93-1.31-2.93-2.93c0-1.62,1.31-2.93,2.93-2.93
					C111.75,249.43,113.06,250.74,113.06,252.36z"/>
				<path class="st3" d="M131.8,259.13c0,1.62-1.31,2.93-2.93,2.93c-1.62,0-2.93-1.31-2.93-2.93c0-1.62,1.31-2.93,2.93-2.93
					C130.49,256.2,131.8,257.51,131.8,259.13z"/>
				<path class="st3" d="M118.73,267.14c0.6,1.51-0.13,3.21-1.64,3.81c-1.51,0.6-3.21-0.13-3.81-1.64c-0.6-1.51,0.13-3.21,1.64-3.81
					C116.42,264.9,118.13,265.63,118.73,267.14z"/>
				<path class="st3" d="M144.17,272.56c0,1.62-1.31,2.93-2.93,2.93c-1.62,0-2.93-1.31-2.93-2.93c0-1.62,1.31-2.93,2.93-2.93
					C142.86,269.62,144.17,270.94,144.17,272.56z"/>
				<path class="st3" d="M162.89,278.61c0,1.62-1.31,2.93-2.93,2.93c-1.62,0-2.93-1.31-2.93-2.93c0-1.62,1.31-2.93,2.93-2.93
					C161.58,275.67,162.89,276.99,162.89,278.61z"/>
				<path class="st3" d="M166.66,240.98c0,1.62-1.31,2.93-2.93,2.93c-1.62,0-2.93-1.31-2.93-2.93c0-1.62,1.31-2.93,2.93-2.93
					C165.34,238.04,166.66,239.36,166.66,240.98z"/>
				<path class="st3" d="M145.36,291.3c0,1.62-1.31,2.93-2.93,2.93c-1.62,0-2.93-1.31-2.93-2.93c0-1.62,1.31-2.93,2.93-2.93
					C144.05,288.37,145.36,289.68,145.36,291.3z"/>
				<path class="st3" d="M127.28,300.4c0,1.62-1.31,2.93-2.93,2.93c-1.62,0-2.93-1.31-2.93-2.93c0-1.62,1.31-2.93,2.93-2.93
					C125.97,297.47,127.28,298.78,127.28,300.4z"/>
				<path class="st3" d="M125.17,283.83c0,1.62-1.31,2.93-2.93,2.93c-1.62,0-2.93-1.31-2.93-2.93c0-1.62,1.31-2.93,2.93-2.93
					C123.86,280.89,125.17,282.21,125.17,283.83z"/>
				<path class="st3" d="M154.09,259.9c0,1.62-1.31,2.93-2.94,2.93c-1.62,0-2.93-1.31-2.93-2.93c0-1.62,1.31-2.93,2.93-2.93
					C152.77,256.97,154.09,258.28,154.09,259.9z"/>
				<path class="st3" d="M170.31,256.2c0,1.62-1.31,2.93-2.93,2.93s-2.93-1.31-2.93-2.93c0-1.62,1.31-2.93,2.93-2.93
					S170.31,254.58,170.31,256.2z"/>
				<path class="st3" d="M159.96,296.16c0,1.62-1.31,2.93-2.93,2.93c-1.62,0-2.93-1.31-2.93-2.93c0-1.62,1.31-2.94,2.93-2.94
					C158.64,293.22,159.96,294.54,159.96,296.16z"/>
				<path class="st3" d="M160.74,319.38c0,1.62-1.31,2.93-2.93,2.93c-1.62,0-2.93-1.31-2.93-2.93c0-1.62,1.31-2.93,2.93-2.93
					C159.43,316.44,160.74,317.76,160.74,319.38z"/>
				<path class="st3" d="M145.81,309.69c0.6,1.51-0.13,3.21-1.64,3.81c-1.51,0.6-3.21-0.13-3.81-1.64c-0.6-1.51,0.13-3.21,1.64-3.81
					C143.5,307.45,145.21,308.18,145.81,309.69z"/>
				<path class="st3" d="M125.83,318.29c0.6,1.51-0.13,3.21-1.64,3.81c-1.51,0.6-3.21-0.13-3.81-1.64c-0.6-1.51,0.13-3.21,1.64-3.81
					C123.52,316.05,125.23,316.78,125.83,318.29z"/>
			</g>
			<polygon class="st2" points="185.27,411.94 184.66,408.29 182.29,394.1 181.48,389.24 179.22,375.69 175.11,375.87 
				120.62,378.34 100.44,379.25 99.15,389.8 98.54,394.71 96.75,409.27 96.42,411.94 			"/>
			<g>
				<g>
					<path class="st5" d="M185.26,411.94l-0.56-3.3l-0.05-0.35l-0.39-2.33l-0.39-2.31l-1.6-9.55l-0.46-2.82l-0.35-2.03l-0.05-0.3
						l-2.06-12.37l-0.14-0.88l-0.18-0.76l-0.16-0.67l-0.92-4.09l-1.83-8l-0.53-2.29l-0.9-4l-1.09-4.79l-0.74-3.28l-0.53-2.29
						l-2.01-8.85l-0.74-3.24l-0.35-1.57l-0.16-0.72l-1.41-6.22c-22.15,6.54-45.61,2.66-56.02,0.32c-0.46,2.1-0.97,4.3-1.48,6.52
						c-0.12,0.49-0.23,0.97-0.35,1.46c-0.18,0.76-0.37,1.53-0.55,2.29c-0.07,0.37-0.16,0.72-0.25,1.09c-0.86,3.63-1.76,7.33-2.64,11
						c-0.18,0.76-0.35,1.53-0.53,2.27c-0.09,0.39-0.18,0.76-0.28,1.16c-0.37,1.62-0.74,3.24-1.11,4.81c-0.46,2.1-0.9,4.16-1.32,6.2
						c-0.16,0.76-0.32,1.5-0.46,2.24c-0.42,2.06-0.79,4.07-1.11,6.01c-0.28,1.69-0.51,3.31-0.69,4.9c-0.07,0.49-0.12,0.97-0.19,1.43
						c-0.07,0.79-0.16,1.55-0.23,2.31c0,0.12-0.02,0.21-0.02,0.32l-1.29,10.54l-0.21,1.64l-0.28,2.29l-0.12,0.97l-1.43,11.54
						l-0.28,2.31l-0.09,0.74l-0.32,2.66H185.26z"/>
				</g>
			</g>
		</g>
		<g>
			<g>
				<g>
					<path class="st7" d="M158.46,190.7c0,0,3.6-4.56,6.28-0.79c2.68,3.77-1.11,14.92-7.67,12.2L158.46,190.7z"/>
					<g>
						<path class="st8" d="M158.51,198.67c0.24,0,0.46-0.15,0.53-0.38c1.02-3.44,4.77-4.84,4.81-4.85c0.29-0.1,0.43-0.41,0.32-0.68
							c-0.11-0.27-0.43-0.41-0.71-0.31c-0.18,0.06-4.31,1.59-5.48,5.55c-0.08,0.28,0.09,0.57,0.38,0.65
							C158.41,198.66,158.46,198.67,158.51,198.67z"/>
					</g>
					<g>
						<path class="st8" d="M162.3,196.93c0.1,0,0.21-0.03,0.3-0.08c0.26-0.16,0.33-0.48,0.17-0.73c-0.03-0.04-0.69-1-2.08-1.59
							c-0.28-0.12-0.61,0-0.73,0.27c-0.13,0.27,0,0.58,0.28,0.7c1.07,0.46,1.6,1.2,1.6,1.2
							C161.94,196.85,162.11,196.93,162.3,196.93z"/>
					</g>
					<g>
						<path class="st0" d="M156.84,202.04c-0.62,0.69-1,1.6-1,2.6c0,2.15,1.75,3.91,3.91,3.91c2.15,0,3.91-1.75,3.91-3.91
							c0-1.24-0.58-2.35-1.49-3.06c-0.45-0.36-0.99-0.62-1.57-0.75c-0.1-0.26-0.05-0.51,0.14-0.74c0.75,0.16,1.43,0.5,1.99,0.98
							c1.03,0.85,1.68,2.14,1.68,3.57c0,2.57-2.09,4.66-4.66,4.66c-2.57,0-4.66-2.09-4.66-4.66c0-1.11,0.39-2.12,1.04-2.92
							C156.36,201.83,156.6,201.93,156.84,202.04z"/>
					</g>
				</g>
				<path class="st6" d="M130.69,214.02v13.68c0,0,6.36,4.9,11.31,5.33c4.95,0.43,6.67-5.41,6.67-5.41v-12.73L130.69,214.02z"/>
				<path class="st7" d="M130.69,215.36v5.46c3.33,3.69,9.23,5,17.98,3.71l0-8.3L130.69,215.36z"/>
				<path class="st6" d="M160.63,195.9c-0.16,1.32-0.34,2.66-0.58,4c-1.57,8.89-7.2,18.5-14.3,20.11
					c-15.34,3.48-21.71-8.57-24.16-17.45c-0.27-0.99,0.24-2.12,0.02-3.29c-0.51-2.77-1.63-5.92-1.88-9.02
					c-0.18-2.15-0.3-4.27-0.39-6.19c-0.25-5.4,2.88-10.37,7.77-12.31c7.05-2.8,17.76-5.02,27.9,0.92c3.75,2.2,6.1,6.26,6.18,10.72
					C161.25,186.8,161.17,191.24,160.63,195.9z"/>
				<g>
					<path class="st7" d="M141.18,202.78c-0.29,0-0.54-0.21-0.59-0.5c-0.05-0.32,0.16-0.63,0.49-0.69l2.05-0.34l-2.82-7.51
						c-0.12-0.31,0.04-0.65,0.35-0.77c0.31-0.11,0.65,0.04,0.77,0.35l3.33,8.86l-3.47,0.58
						C141.24,202.78,141.21,202.78,141.18,202.78z"/>
				</g>
				<path class="st5" d="M148.52,192.85c0,1.31,0.68,2.38,1.51,2.38c0.83,0,1.51-1.06,1.51-2.38c0-1.31-0.68-2.38-1.51-2.38
					C149.19,190.47,148.52,191.54,148.52,192.85z"/>
				<path class="st5" d="M131.82,192.85c0,1.31,0.68,2.38,1.51,2.38s1.51-1.06,1.51-2.38c0-1.31-0.68-2.38-1.51-2.38
					S131.82,191.54,131.82,192.85z"/>
				<path class="st5" d="M154.47,186.62c-1.21-0.24-3.67-0.63-6.29-0.54c-0.69,0.02-1.24,0.54-1.14,1.09l0,0.01
					c0.08,0.44,0.54,0.73,1.09,0.69c1.78-0.13,6.45-0.11,8.62,0.54c0.06-0.31-0.15-0.65-0.46-0.94
					C155.83,187.03,155.18,186.75,154.47,186.62z"/>
				<path class="st5" d="M130.18,186.9c1.21-0.25,3.66-0.68,6.28-0.62c0.69,0.01,1.25,0.53,1.16,1.08l0,0.01
					c-0.07,0.44-0.53,0.74-1.09,0.71c-1.79-0.11-6.45-0.02-8.61,0.66c-0.06-0.31,0.14-0.65,0.44-0.95
					C128.82,187.34,129.47,187.05,130.18,186.9z"/>
				<path class="st0" d="M148.52,206.33c-0.44,2.09-1.91,5.93-6.85,5.93c-4.96,0-6.35-3.51-6.82-5.93H148.52z"/>
				<g>
					<path class="st7" d="M141.73,215.85c1.43,0,2.69-0.77,2.74-0.8c0.27-0.17,0.36-0.53,0.19-0.8c-0.17-0.27-0.53-0.36-0.8-0.19
						l0,0c-0.01,0.01-1.04,0.63-2.13,0.63c-1.18,0-2.23-0.62-2.24-0.63c-0.28-0.17-0.64-0.08-0.8,0.2c-0.17,0.28-0.08,0.63,0.2,0.8
						C138.94,215.08,140.22,215.85,141.73,215.85z"/>
				</g>
				<path class="st5" d="M161.25,194.5c-0.14,0.12-0.28,0.08-0.41-0.16c-2.03-3.57-0.12-10.7-6.12-13.43
					c-4.57-2.08-6.21-6.36-6.21-6.36c-1.04,1.79-3.76,3.43-3.76,3.43s-6.9,4.09-14.06,6.85c-2.13,0.82-3.65,1.65-4.71,2.37
					c0.08,0.02,0.13,0.04,0.13,0.04s-1.98,3.22-0.53,8.23c1.45,5.01-0.42,13.27-3.64,15.18c0.06-0.14,2.48-5.85,1.11-10.52
					c-0.79-2.67-0.78-6.93-1.53-9.47c-0.83-0.57-2.74-1.53-3.38-1.91c-0.18-2.19-0.32-4.35-0.41-6.31
					c-0.26-5.51,3.04-10.57,8.19-12.55c7.43-2.86,18.72-5.12,29.41,0.94c3.95,2.24,6.43,6.38,6.52,10.92
					C161.91,185.22,161.82,189.76,161.25,194.5z"/>
			</g>
			<g>
				<path class="st6" d="M121.52,190.66c0,0-4.19-5.08-6.66-1.42c-2.47,3.67,1.18,14.9,7.23,12.26L121.52,190.66z"/>
				<g>
					<path class="st0" d="M121.69,201.69c0.43,0.82,0.58,1.79,0.34,2.76c-0.52,2.09-2.65,3.36-4.74,2.84
						c-2.09-0.52-3.36-2.65-2.84-4.74c0.3-1.2,1.13-2.13,2.18-2.61c0.53-0.24,1.11-0.36,1.71-0.35c0.1-0.22,0.16-0.47,0.04-0.75
						c-0.76-0.02-1.51,0.14-2.17,0.46c-1.2,0.58-2.15,1.67-2.49,3.06c-0.62,2.49,0.9,5.02,3.39,5.65c2.49,0.62,5.02-0.9,5.65-3.39
						c0.27-1.07,0.13-2.15-0.3-3.08C122.2,201.59,121.94,201.64,121.69,201.69z"/>
				</g>
				<g>
					<path class="st7" d="M120.61,197.75c-0.22,0-0.43-0.15-0.49-0.37c-0.94-3.34-4.4-4.7-4.44-4.71c-0.26-0.1-0.4-0.4-0.3-0.66
						c0.1-0.26,0.39-0.4,0.66-0.3c0.16,0.06,3.98,1.54,5.06,5.39c0.08,0.27-0.08,0.55-0.35,0.63
						C120.7,197.74,120.66,197.75,120.61,197.75z"/>
				</g>
				<g>
					<g>
						<path class="st7" d="M117.12,196.06c-0.09,0-0.19-0.03-0.28-0.08c-0.24-0.15-0.31-0.47-0.15-0.71
							c0.03-0.04,0.64-0.97,1.92-1.55c0.26-0.12,0.56,0,0.68,0.26c0.12,0.26,0,0.56-0.26,0.68c-0.99,0.44-1.47,1.16-1.48,1.17
							C117.45,195.98,117.28,196.06,117.12,196.06z"/>
					</g>
				</g>
			</g>
		</g>
	</g>
	<g>
		<path class="st6" d="M343.4,301.03c-9.75,7-25,11.8-25,11.8l-3.12-11.23l-2.44-8.76l-1.72-6.18l-17.48-0.01
			c0.95,3.28,1.92,6.62,2.91,9.92c1.26,4.25,2.52,8.41,3.71,12.25c1.69,5.4,3.24,10.15,4.5,13.55c0.29,0.79,0.63,1.65,1.02,2.57
			c2.34,6.31,4.22,13.16,13.14,8.86c7.85-3.78,18.5-9.02,23.82-12.5L343.4,301.03z"/>
		<g>
			<path class="st7" d="M296.55,296.57c1.26,4.25,2.52,8.41,3.72,12.25c7.14-0.76,12.07-4.29,15.01-7.22l-2.44-8.76L296.55,296.57z"
				/>
			<path class="st9" d="M292.84,235.26c0,0,18.24,43.49,26.08,57.58c0,0-10.99,9.34-21.7,9.6
				C297.22,302.44,291.05,254.69,292.84,235.26z"/>
		</g>
		<g>
			<g>
				<g>
					<path class="st2" d="M250.15,411.97c0.18-3.04,0.36-5.94,0.51-8.63c0.65-10.98,1.06-18.47,1.06-18.47l-4.3-0.19l-2.42-0.11
						l-29.23-1.3c0,0-0.53,8.38-1.16,20.69c-0.13,2.52-0.26,5.2-0.39,8.01H250.15z"/>
				</g>
			</g>
			<path class="st3" d="M247.42,384.69l4.3,0.19c0,0-0.42,7.49-1.06,18.47c-11.23,0.94-23.49,1.32-36.05,0.62
				c0.63-12.31,1.16-20.69,1.16-20.69l29.23,1.3L247.42,384.69z"/>
			<g>
				<path class="st3" d="M245.89,411.97c0.68-11.73,1.23-21.77,1.54-27.29l-2.42-0.11c-0.3,5.54-0.86,15.63-1.54,27.4H245.89z"/>
			</g>
		</g>
		<g>
			<g>
				<g>
					<path class="st2" d="M259.57,411.97h35.93c-0.13-2.81-0.27-5.49-0.39-8.01c-0.63-12.31-1.16-20.69-1.16-20.69l-29.23,1.3
						l-2.42,0.11l-4.3,0.19c0,0,0.42,7.49,1.06,18.47C259.21,406.03,259.38,408.93,259.57,411.97z"/>
				</g>
			</g>
			<path class="st3" d="M262.29,384.69l-4.3,0.19c0,0,0.42,7.49,1.06,18.47c11.23,0.94,23.49,1.32,36.05,0.62
				c-0.63-12.31-1.16-20.69-1.16-20.69l-29.23,1.3L262.29,384.69z"/>
			<g>
				<path class="st3" d="M266.25,411.97c-0.68-11.77-1.24-21.86-1.54-27.4l-2.42,0.11c0.3,5.52,0.86,15.56,1.54,27.29H266.25z"/>
			</g>
		</g>
		<g>
			<g>
				<g>
					<g>
						<path class="st3" d="M209.42,362.44c0,0.6,0,1.2,0,1.78c0.01,10.69,0.07,18.97,0.12,23.04c10.32,2.8,20.65,4.6,30.98,5.44
							c0.47,0.04,0.93,0.07,1.4,0.11c0.25,0.02,0.5,0.04,0.75,0.05c0.55,0.04,1.11,0.07,1.66,0.1c0.62,0.04,1.23,0.07,1.85,0.1
							c7.03,0.33,14.05,0.2,21.08-0.38c1.42-0.12,2.83-0.26,4.25-0.41c0.09-0.01,0.18-0.02,0.27-0.03c0.36-0.04,0.72-0.08,1.09-0.13
							c0.22-0.03,0.44-0.05,0.66-0.08c8.17-0.98,16.35-2.57,24.53-4.78c0.02-1.85,0.03-4.59,0.03-8.04c0-0.64,0-1.3,0-1.99v0
							c0-4.94-0.04-11.09-0.09-18.03c0-0.59-0.01-1.19-0.01-1.8c-0.04-4.63-0.09-9.58-0.15-14.75c-0.01-0.6-0.01-1.2-0.02-1.8
							c-0.07-5.3-0.15-10.8-0.24-16.39c-0.06-3.41-0.12-6.86-0.19-10.3c-0.07-3.49-0.15-6.99-0.23-10.46
							c-0.02-0.76-0.04-1.51-0.06-2.27c-0.8-32.85-2.19-63.05-4.48-66.42c-1.59-2.33-5.22-5.07-9.51-7.83
							c-0.52-0.33-1.06-0.67-1.6-1.01c-1.82-1.14-16.71-6.2-18.6-7.31l-15.73-1.1c-0.1,0.06-15.14,5.13-15.24,5.18
							c-0.65,0.37-1.3,0.74-1.95,1.12c-5.57,3.21-11.07,6.6-14.23,9.52c-0.46,0.42-0.88,0.84-1.23,1.24
							c-0.28,0.32-0.53,0.63-0.73,0.94c-0.19,0.28-0.37,0.74-0.55,1.38c-1.9,6.92-2.9,34.1-3.4,63.68c-0.04,2.12-0.07,4.25-0.1,6.39
							c-0.01,0.94-0.03,1.88-0.04,2.82c-0.01,0.65-0.02,1.3-0.03,1.94c0,0.33-0.01,0.65-0.01,0.97c-0.02,1.61-0.04,3.21-0.05,4.81
							c-0.01,1.18-0.03,2.36-0.04,3.54C209.46,336.18,209.41,350.65,209.42,362.44z"/>
					</g>
				</g>
			</g>
		</g>
		<g>
			<g>
				<path class="st6" d="M181.29,404.68c-0.39,4.2,4.73,1.92,3.28-6.59c-1.44-8.51,2.66-16.21,4.42-15.97
					c1.77,0.25-1.46,9.29,0.11,12.55c1.57,3.26,3.6-3.07,5.62-6.91c2.1-3.99,1.97-12.69,1.02-18.9
					c-0.95-6.21,10.3-43.94,10.36-54.87l1.37-4.63l5.02-16.97l7.86-26.57c0,0-4.71-20.11-12.65-18.38c0,0-4.2,14.01-8.7,29.81
					c-0.76,2.68-1.53,5.42-2.29,8.14c-3.2,11.45-6.21,22.76-7.61,29.47c-3.69,17.72-3.98,54.54-3.98,54.54s-6.52,13.53-6.67,19.55
					C178.3,395.37,181.67,400.48,181.29,404.68z"/>
				<path class="st7" d="M196.72,285.39l10.76,23.97l5.02-16.97l-13.49-15.15C198.25,279.92,197.48,282.66,196.72,285.39z"/>
			</g>
			<path class="st3" d="M196.19,278.25c4.72,8.09,9.52,16.14,14.3,24.2c1.57-5.27,3.21-10.33,4.74-14.99c0-0.01,0.01-0.02,0.01-0.04
				c0.61-1.86,1.21-3.65,1.78-5.37c0.01-0.03,0.02-0.06,0.03-0.09c0.2-0.6,0.39-1.2,0.59-1.78v0c2.28-6.9,4.05-12.38,4.56-15.58
				c1.36-8.61-2.35-25.46-7.59-28.79l0,0c-0.14,0.3-0.55-0.63-0.8-0.06c-0.92,2.12-5,7.37-7.02,12.48c-0.26,0.65-0.52,1.33-0.8,2.02
				C203.07,257.77,199.5,267.54,196.19,278.25z"/>
		</g>
		<g>
			<g>
				<g>
					<path class="st9" d="M254.36,233.49c6.81,0,11.62-6.22,11.82-6.48c0.29-0.38,0.23-0.93-0.12-1.24
						c-0.35-0.31-0.87-0.25-1.16,0.13c-0.06,0.08-4.53,5.83-10.54,5.83c-5.94,0-9.56-6.51-9.59-6.57c-0.23-0.42-0.73-0.56-1.12-0.32
						c-0.39,0.24-0.53,0.78-0.3,1.2C243.51,226.34,247.47,233.49,254.36,233.49z"/>
				</g>
			</g>
			<g>
				<path class="st9" d="M283.17,293.05c0.13,0,0.25-0.03,0.37-0.1c0.41-0.22,0.57-0.75,0.37-1.19l-2.97-6.28
					c-0.21-0.44-0.71-0.61-1.11-0.39c-0.41,0.22-0.57,0.75-0.37,1.19l2.97,6.28C282.57,292.87,282.87,293.05,283.17,293.05z"/>
			</g>
			<g>
				<path class="st9" d="M289.36,287.9c0.11,0.07,0.23,0.12,0.36,0.13c0.46,0.04,0.86-0.32,0.9-0.81l0.58-7.01
					c0.04-0.49-0.3-0.92-0.75-0.96c-0.46-0.04-0.86,0.32-0.9,0.8l-0.58,7.01C288.94,287.42,289.1,287.73,289.36,287.9z"/>
			</g>
			<g>
				<path class="st9" d="M273.4,277.04c0.4,0,0.75-0.31,0.82-0.74l1.07-6.94c0.07-0.48-0.23-0.94-0.68-1.02
					c-0.45-0.08-0.88,0.25-0.95,0.73l-1.07,6.94c-0.07,0.48,0.23,0.94,0.68,1.02C273.31,277.03,273.35,277.04,273.4,277.04z"/>
			</g>
			<g>
				<path class="st9" d="M246.71,279.62c0.14,0,0.29-0.04,0.42-0.12c0.39-0.25,0.52-0.79,0.29-1.21l-3.35-6.06
					c-0.23-0.42-0.74-0.56-1.14-0.31c-0.39,0.25-0.52,0.79-0.29,1.21l3.35,6.06C246.15,279.46,246.42,279.62,246.71,279.62z"/>
			</g>
			<g>
				<path class="st9" d="M279.5,252.48c0.15,0,0.31-0.05,0.45-0.14l5.52-3.82c0.38-0.27,0.49-0.81,0.25-1.23
					c-0.25-0.41-0.76-0.53-1.15-0.26l-5.52,3.82c-0.38,0.27-0.49,0.81-0.25,1.23C278.96,252.34,279.23,252.48,279.5,252.48z"/>
			</g>
			<g>
				<path class="st9" d="M254.88,308.89c0.13,0,0.25-0.03,0.37-0.1c0.41-0.22,0.57-0.75,0.37-1.19l-2.97-6.28
					c-0.21-0.44-0.7-0.61-1.11-0.39c-0.41,0.22-0.57,0.75-0.37,1.19l2.97,6.28C254.29,308.72,254.58,308.89,254.88,308.89z"/>
			</g>
			<g>
				<path class="st9" d="M267.94,257.2c0.28,0,0.55-0.15,0.7-0.42c0.24-0.42,0.13-0.96-0.26-1.22l-5.58-3.73
					c-0.39-0.26-0.9-0.13-1.14,0.28c-0.24,0.42-0.13,0.96,0.26,1.22l5.58,3.73C267.64,257.16,267.79,257.2,267.94,257.2z"/>
			</g>
			<g>
				<path class="st9" d="M281.2,231.09c-0.01,0.17,0.02,0.34,0.09,0.48c0.13,0.26,0.38,0.44,0.67,0.47
					c0.46,0.04,0.85-0.33,0.88-0.82l0.26-4.04c-0.52-0.33-1.05-0.67-1.6-1.01L281.2,231.09z"/>
			</g>
			<g>
				<path class="st9" d="M288.64,269.62c0.28,0,0.55-0.15,0.7-0.42c0.24-0.42,0.13-0.96-0.26-1.22l-5.58-3.73
					c-0.39-0.26-0.9-0.13-1.14,0.28c-0.24,0.42-0.13,0.96,0.26,1.22l5.58,3.73C288.34,269.58,288.49,269.62,288.64,269.62z"/>
			</g>
			<g>
				<path class="st9" d="M244.16,238.98c0.16,0,0.31-0.05,0.46-0.15c0.38-0.27,0.49-0.82,0.24-1.23l-3.18-5.16
					c-0.25-0.41-0.77-0.52-1.15-0.25c-0.38,0.27-0.49,0.82-0.24,1.23l3.18,5.16C243.63,238.84,243.89,238.98,244.16,238.98z"/>
			</g>
			<g>
				<path class="st9" d="M241.31,328.15c0.22,0,0.44-0.09,0.6-0.27l4.56-5.08c0.32-0.35,0.31-0.91-0.02-1.25
					c-0.33-0.34-0.86-0.33-1.17,0.03l-4.56,5.08c-0.32,0.35-0.31,0.91,0.02,1.25C240.9,328.07,241.1,328.15,241.31,328.15z"/>
			</g>
			<g>
				<path class="st9" d="M258.06,327.09c0.22,0,0.44-0.09,0.6-0.27l4.56-5.08c0.32-0.35,0.31-0.91-0.02-1.25
					c-0.33-0.34-0.85-0.33-1.17,0.03l-4.56,5.08c-0.32,0.35-0.31,0.91,0.02,1.25C257.64,327.01,257.85,327.09,258.06,327.09z"/>
			</g>
			<g>
				<path class="st9" d="M270.1,361.41c0.08-0.22,0.07-0.47-0.03-0.69l-2.84-6.35c-0.2-0.44-0.69-0.63-1.11-0.42
					c-0.41,0.21-0.59,0.74-0.39,1.18l2.84,6.35c0.2,0.44,0.69,0.63,1.11,0.42C269.88,361.79,270.02,361.61,270.1,361.41z"/>
			</g>
			<g>
				<path class="st9" d="M222.04,382.34c0.08-0.22,0.07-0.47-0.03-0.69l-2.84-6.35c-0.2-0.44-0.69-0.63-1.11-0.42
					c-0.41,0.21-0.59,0.74-0.39,1.18l2.84,6.35c0.2,0.44,0.69,0.63,1.11,0.42C221.82,382.73,221.97,382.55,222.04,382.34z"/>
			</g>
			<g>
				<path class="st9" d="M242.68,392.85c0.56,0.04,1.11,0.07,1.66,0.1l0.58-3.95c0.07-0.48-0.24-0.94-0.69-1.01
					c-0.45-0.07-0.88,0.26-0.95,0.74L242.68,392.85z"/>
			</g>
			<g>
				<path class="st9" d="M236.06,380.91c0.18-0.13,0.31-0.34,0.34-0.59l1.02-6.95c0.07-0.48-0.24-0.94-0.69-1.01
					c-0.45-0.08-0.88,0.25-0.95,0.74l-1.02,6.95c-0.07,0.48,0.24,0.94,0.69,1.01C235.68,381.09,235.89,381.03,236.06,380.91z"/>
			</g>
			<g>
				<path class="st9" d="M276.07,322.77c0.14,0,0.28-0.04,0.41-0.12c0.4-0.24,0.53-0.79,0.3-1.21l-3.3-6.09
					c-0.23-0.42-0.74-0.57-1.13-0.32c-0.4,0.25-0.53,0.79-0.3,1.21l3.3,6.09C275.5,322.62,275.78,322.77,276.07,322.77z"/>
			</g>
			<g>
				<path class="st9" d="M266.39,307.55c0.3,0,0.59-0.18,0.74-0.48l3.02-6.25c0.21-0.44,0.05-0.97-0.36-1.19
					c-0.41-0.23-0.91-0.05-1.12,0.38l-3.02,6.25c-0.21,0.44-0.05,0.97,0.36,1.19C266.13,307.52,266.26,307.55,266.39,307.55z"/>
			</g>
			<g>
				<path class="st9" d="M292.6,306.63c0.09,0.11,0.2,0.19,0.31,0.25c0.28,0.12,0.61,0.08,0.86-0.14l3.39-3.05
					c-0.02-0.76-0.03-1.51-0.05-2.27l-4.41,3.96C292.35,305.7,292.3,306.26,292.6,306.63z"/>
			</g>
			<g>
				<path class="st9" d="M266.43,241.2c0.3,0,0.59-0.17,0.74-0.48l3.02-6.25c0.21-0.44,0.05-0.97-0.36-1.19
					c-0.41-0.22-0.91-0.05-1.12,0.38l-3.02,6.25c-0.21,0.44-0.05,0.97,0.36,1.19C266.17,241.17,266.3,241.2,266.43,241.2z"/>
			</g>
			<g>
				<path class="st9" d="M247.1,264.11c0.05,0,0.1-0.01,0.16-0.02c0.45-0.09,0.74-0.56,0.66-1.04l-1.25-6.91
					c-0.09-0.48-0.52-0.8-0.97-0.7c-0.45,0.09-0.74,0.56-0.66,1.04l1.25,6.91C246.36,263.82,246.71,264.11,247.1,264.11z"/>
			</g>
			<g>
				<path class="st9" d="M257.86,270.18c0.05,0,0.1-0.01,0.16-0.02c0.45-0.09,0.74-0.56,0.66-1.04l-1.25-6.91
					c-0.09-0.48-0.52-0.79-0.97-0.7c-0.45,0.09-0.74,0.56-0.66,1.04l1.25,6.91C257.12,269.88,257.47,270.18,257.86,270.18z"/>
			</g>
			<g>
				<path class="st9" d="M250.15,247.38c0.27,0,0.54-0.15,0.7-0.41l3.53-5.94c0.25-0.41,0.13-0.96-0.26-1.22
					c-0.39-0.26-0.9-0.14-1.14,0.27l-3.53,5.94c-0.25,0.41-0.13,0.96,0.26,1.22C249.84,247.34,250,247.38,250.15,247.38z"/>
			</g>
			<g>
				<path class="st9" d="M282.5,308.65c0.23-0.26,0.29-0.65,0.14-0.99l-2.83-6.35c-0.2-0.44-0.69-0.63-1.11-0.42
					c-0.41,0.21-0.59,0.74-0.39,1.18l2.83,6.35c0.2,0.44,0.69,0.63,1.11,0.42C282.34,308.79,282.43,308.73,282.5,308.65z"/>
			</g>
			<g>
				<path class="st9" d="M261.16,290.22c0.33,0,0.64-0.21,0.77-0.56l2.4-6.55c0.17-0.46-0.04-0.97-0.47-1.15
					c-0.43-0.18-0.91,0.05-1.07,0.5l-2.4,6.55c-0.17,0.46,0.04,0.97,0.47,1.15C260.96,290.2,261.06,290.22,261.16,290.22z"/>
			</g>
			<g>
				<path class="st9" d="M234.82,330.7c0.13,0,0.25-0.03,0.37-0.1c0.41-0.22,0.57-0.75,0.37-1.19l-2.97-6.28
					c-0.21-0.44-0.71-0.61-1.11-0.39c-0.41,0.22-0.57,0.75-0.37,1.19l2.97,6.28C234.22,330.52,234.52,330.7,234.82,330.7z"/>
			</g>
			<g>
				<path class="st9" d="M278.48,375.83c0,0.13,0.03,0.27,0.09,0.4c0.21,0.43,0.71,0.6,1.12,0.38l5.84-3.24
					c0.41-0.22,0.57-0.76,0.35-1.2c-0.21-0.43-0.71-0.6-1.12-0.38l-5.84,3.24C278.64,375.19,278.48,375.5,278.48,375.83z"/>
			</g>
			<g>
				<path class="st9" d="M294.34,379.85c0,0.14,0.03,0.27,0.09,0.4c0.21,0.44,0.71,0.6,1.12,0.38l2.54-1.41c0-0.64,0-1.3,0-1.99
					l-3.3,1.82C294.5,379.21,294.34,379.53,294.34,379.85z"/>
			</g>
			<g>
				<path class="st9" d="M269.79,387.68l2,4.56c0.36-0.04,0.72-0.08,1.09-0.13c0.22-0.03,0.44-0.05,0.65-0.08l-2.24-5.11
					c-0.19-0.44-0.69-0.64-1.1-0.43C269.78,386.71,269.6,387.23,269.79,387.68z"/>
			</g>
			<g>
				<path class="st9" d="M224.04,314.69c0.4,0,0.75-0.31,0.82-0.74l1.07-6.94c0.07-0.48-0.23-0.94-0.68-1.02
					c-0.45-0.08-0.88,0.25-0.95,0.73l-1.07,6.94c-0.07,0.48,0.23,0.94,0.68,1.02C223.95,314.68,223.99,314.69,224.04,314.69z"/>
			</g>
			<g>
				<path class="st9" d="M223.35,263.46c0.14,0,0.29-0.04,0.42-0.12c0.39-0.25,0.52-0.79,0.29-1.21l-3.35-6.06
					c-0.23-0.42-0.74-0.56-1.14-0.31c-0.39,0.25-0.52,0.79-0.29,1.21l3.35,6.06C222.79,263.3,223.07,263.46,223.35,263.46z"/>
			</g>
			<g>
				<path class="st9" d="M234.13,288.07c0.15,0,0.31-0.05,0.45-0.14l5.52-3.82c0.38-0.27,0.49-0.81,0.25-1.23
					c-0.25-0.41-0.76-0.53-1.15-0.26l-5.53,3.82c-0.38,0.27-0.49,0.81-0.25,1.23C233.59,287.93,233.86,288.07,234.13,288.07z"/>
			</g>
			<g>
				<path class="st9" d="M292.63,329.35c0.13,0,0.25-0.03,0.37-0.1c0.41-0.22,0.57-0.75,0.37-1.19l-2.97-6.28
					c-0.21-0.44-0.7-0.61-1.11-0.39c-0.41,0.22-0.57,0.75-0.37,1.19l2.97,6.28C292.03,329.17,292.32,329.35,292.63,329.35z"/>
			</g>
			<g>
				<path class="st9" d="M224.71,297.61c0.28,0,0.55-0.15,0.7-0.42c0.24-0.42,0.13-0.96-0.26-1.22l-5.58-3.73
					c-0.39-0.26-0.9-0.13-1.14,0.28c-0.24,0.42-0.13,0.96,0.26,1.22l5.58,3.73C224.41,297.56,224.56,297.61,224.71,297.61z"/>
			</g>
			<g>
				<path class="st9" d="M238.09,306.49c0.2,0.2,0.49,0.29,0.78,0.21c0.44-0.13,0.7-0.62,0.58-1.09l-1.73-6.79
					c-0.12-0.47-0.58-0.75-1.02-0.62c-0.44,0.13-0.7,0.62-0.58,1.09l1.73,6.79C237.89,306.24,237.97,306.38,238.09,306.49z"/>
			</g>
			<g>
				<path class="st9" d="M214.55,234.81l1.44,2.34c0.16,0.25,0.42,0.4,0.69,0.4c0.16,0,0.31-0.04,0.45-0.15
					c0.38-0.27,0.49-0.82,0.24-1.23l-1.6-2.6C215.31,234,214.9,234.41,214.55,234.81z"/>
			</g>
			<g>
				<path class="st9" d="M208.24,250.25l1.53,2.49c0.16,0.26,0.42,0.4,0.69,0.4c0.16,0,0.31-0.05,0.46-0.15
					c0.38-0.27,0.49-0.82,0.23-1.23l-2.17-3.53C208.74,248.88,208.5,249.56,208.24,250.25z"/>
			</g>
			<g>
				<path class="st9" d="M279.95,351.27c0.22,0,0.44-0.09,0.6-0.27l4.56-5.08c0.32-0.35,0.31-0.91-0.02-1.25
					c-0.33-0.34-0.86-0.33-1.17,0.03l-4.56,5.08c-0.32,0.35-0.31,0.91,0.02,1.25C279.54,351.19,279.75,351.27,279.95,351.27z"/>
			</g>
			<g>
				<path class="st9" d="M249.63,369.02c0.22,0,0.44-0.09,0.6-0.27l4.56-5.08c0.32-0.35,0.31-0.91-0.02-1.25
					c-0.33-0.34-0.86-0.33-1.17,0.03l-4.56,5.08c-0.32,0.35-0.31,0.91,0.02,1.25C249.22,368.94,249.43,369.02,249.63,369.02z"/>
			</g>
			<g>
				<path class="st9" d="M241.21,361.97c0.14-0.18,0.21-0.42,0.18-0.67l-0.82-6.98c-0.06-0.49-0.47-0.83-0.93-0.77
					c-0.45,0.06-0.78,0.5-0.72,0.99l0.82,6.98c0.06,0.49,0.47,0.83,0.93,0.77C240.89,362.26,241.08,362.14,241.21,361.97z"/>
			</g>
			<g>
				<path class="st9" d="M258.48,381.65c0.22,0,0.44-0.09,0.6-0.27l4.56-5.08c0.32-0.35,0.31-0.91-0.02-1.25
					c-0.33-0.34-0.86-0.33-1.17,0.03l-4.56,5.08c-0.32,0.35-0.31,0.91,0.02,1.25C258.06,381.57,258.27,381.65,258.48,381.65z"/>
			</g>
			<g>
				<path class="st9" d="M209.42,362.44c0,0.6,0,1.2,0,1.78l5.14,0.46c0.46,0.04,0.86-0.32,0.9-0.81c0.04-0.49-0.3-0.91-0.76-0.96
					L209.42,362.44z"/>
			</g>
			<g>
				<path class="st9" d="M269.66,340.6c0.22,0,0.44-0.09,0.6-0.27l4.56-5.08c0.32-0.35,0.31-0.91-0.02-1.25
					c-0.33-0.34-0.85-0.33-1.17,0.03l-4.56,5.08c-0.32,0.35-0.31,0.91,0.02,1.25C269.25,340.52,269.46,340.6,269.66,340.6z"/>
			</g>
			<g>
				<path class="st9" d="M247.74,338.39c0.01,0.23,0.11,0.46,0.29,0.62l5.04,4.53c0.35,0.32,0.87,0.27,1.17-0.11
					c0.29-0.38,0.25-0.93-0.1-1.25l-5.04-4.53c-0.35-0.32-0.87-0.27-1.17,0.11C247.79,337.95,247.72,338.17,247.74,338.39z"/>
			</g>
			<g>
				<path class="st9" d="M223.74,363.3c0.14,0,0.28-0.04,0.41-0.12c0.4-0.25,0.53-0.79,0.3-1.21l-3.3-6.09
					c-0.23-0.42-0.74-0.57-1.13-0.32c-0.4,0.25-0.53,0.79-0.3,1.21l3.3,6.09C223.18,363.15,223.46,363.3,223.74,363.3z"/>
			</g>
			<g>
				<path class="st9" d="M218.04,345.2c0.3,0,0.59-0.17,0.74-0.48l3.02-6.25c0.21-0.44,0.05-0.97-0.36-1.19
					c-0.41-0.23-0.91-0.05-1.12,0.38l-3.02,6.25c-0.21,0.44-0.05,0.97,0.36,1.19C217.78,345.17,217.91,345.2,218.04,345.2z"/>
			</g>
			<g>
				<path class="st9" d="M227.04,274.19c0.3,0,0.59-0.18,0.74-0.48l3.02-6.25c0.21-0.44,0.05-0.97-0.36-1.19
					c-0.41-0.22-0.91-0.05-1.12,0.38l-3.02,6.25c-0.21,0.44-0.05,0.97,0.36,1.19C226.78,274.16,226.91,274.19,227.04,274.19z"/>
			</g>
			<g>
				<path class="st9" d="M223.74,247.95c0.05,0,0.1-0.01,0.16-0.02c0.45-0.09,0.74-0.56,0.66-1.04l-1.25-6.91
					c-0.09-0.48-0.52-0.79-0.97-0.7c-0.45,0.09-0.74,0.56-0.66,1.04l1.25,6.91C223,247.65,223.35,247.95,223.74,247.95z"/>
			</g>
			<g>
				<path class="st9" d="M208.59,271.79c0.05,0,0.1-0.01,0.16-0.02c0.45-0.09,0.74-0.56,0.66-1.04l-1.25-6.91
					c-0.09-0.48-0.52-0.79-0.97-0.7c-0.45,0.09-0.74,0.56-0.66,1.04l1.25,6.91C207.85,271.5,208.2,271.79,208.59,271.79z"/>
			</g>
			<g>
				<path class="st9" d="M234.51,254.01c0.05,0,0.1-0.01,0.16-0.02c0.45-0.09,0.74-0.56,0.66-1.04l-1.25-6.91
					c-0.09-0.48-0.52-0.79-0.97-0.7c-0.45,0.09-0.74,0.56-0.66,1.04l1.25,6.91C233.77,253.72,234.12,254.01,234.51,254.01z"/>
			</g>
			<g>
				<path class="st9" d="M229.57,229.95c0.16,0.04,0.32,0.03,0.46-0.03c0.26-0.1,0.47-0.33,0.53-0.63l1.39-6.35
					c-0.65,0.37-1.3,0.74-1.95,1.12l-1.06,4.82C228.84,229.36,229.12,229.83,229.57,229.95z"/>
			</g>
			<g>
				<path class="st9" d="M210.6,282.47c0.27,0,0.54-0.15,0.7-0.41l3.53-5.94c0.25-0.41,0.13-0.96-0.26-1.22
					c-0.39-0.26-0.9-0.14-1.14,0.27l-3.53,5.94c-0.25,0.41-0.13,0.96,0.26,1.22C210.29,282.43,210.44,282.47,210.6,282.47z"/>
			</g>
			<g>
				<path class="st9" d="M234.14,346.3c0.23-0.26,0.29-0.65,0.14-0.99l-2.83-6.35c-0.2-0.44-0.69-0.63-1.11-0.42
					c-0.41,0.21-0.59,0.74-0.39,1.18l2.83,6.35c0.2,0.44,0.69,0.63,1.11,0.42C233.99,346.44,234.08,346.38,234.14,346.3z"/>
			</g>
			<g>
				<path class="st9" d="M292.46,358.23l5.54,0.96c0-0.59-0.01-1.19-0.02-1.8l-5.25-0.91c-0.45-0.07-0.88,0.25-0.95,0.73
					C291.71,357.7,292.01,358.16,292.46,358.23z"/>
			</g>
			<g>
				<path class="st9" d="M294.15,342.01l3.69,0.64c-0.01-0.6-0.01-1.2-0.02-1.8l-3.4-0.59c-0.45-0.08-0.88,0.25-0.95,0.73
					C293.39,341.48,293.7,341.93,294.15,342.01z"/>
			</g>
			<g>
				<path class="st9" d="M212.81,327.87c0.33,0,0.64-0.21,0.77-0.56l2.4-6.55c0.17-0.46-0.04-0.97-0.47-1.15
					c-0.43-0.18-0.91,0.05-1.07,0.5l-2.4,6.55c-0.17,0.46,0.04,0.97,0.47,1.15C212.61,327.85,212.71,327.87,212.81,327.87z"/>
			</g>
		</g>
		<g>
			<g>
				<g>
					<path class="st9" d="M209.77,307.2c1.56-6.43,3.51-13.58,5.45-19.74c0-0.01,0.01-0.02,0.01-0.04c0.6-1.9,1.2-3.71,1.78-5.37
						c0.01-0.03,0.02-0.06,0.03-0.09c0.18-0.52,0.36-1.03,0.55-1.52c0.03-0.09,0.04-0.17,0.04-0.26v0c0-0.29-0.18-0.57-0.48-0.68
						c-0.38-0.14-0.8,0.06-0.94,0.44c-1.99,5.42-4.34,13.22-6.35,20.87C209.83,302.93,209.8,305.06,209.77,307.2z"/>
				</g>
			</g>
		</g>
		<g>
			<path class="st5" d="M233.54,183c0,0-5.77-6.36-3.59-13.77c2.18-7.4,8.14-7.32,8.14-7.32s3.48-7.87,9.4-8.13
				c5.92-0.26,11.51-10.78,16.9-7.92c5.39,2.86-0.58,9.09-0.58,9.09s9.23-9.74,12.28-6.88c3.04,2.86-4.23,10.52-4.23,10.52
				s7.76-5.45,10.31-3.38c2.55,2.08-6.08,11.04-6.08,11.04s5.58,10.06-0.04,14.58L233.54,183z"/>
			<g>
				<path class="st7" d="M273.88,185.13c0,0,3.69-4.92,6.44-0.85c2.75,4.07-1.14,16.09-7.86,13.16L273.88,185.13z"/>
				<g>
					<path class="st8" d="M273.93,193.72c0.25,0,0.48-0.16,0.55-0.41c1.04-3.71,4.89-5.22,4.93-5.23c0.29-0.11,0.44-0.44,0.33-0.73
						c-0.11-0.29-0.44-0.44-0.73-0.33c-0.18,0.07-4.42,1.71-5.62,5.99c-0.08,0.3,0.09,0.62,0.39,0.7
						C273.83,193.71,273.88,193.72,273.93,193.72z"/>
				</g>
				<g>
					<path class="st8" d="M277.81,191.85c0.11,0,0.21-0.03,0.31-0.09c0.26-0.17,0.34-0.52,0.17-0.79c-0.03-0.04-0.71-1.08-2.13-1.72
						c-0.29-0.13-0.62,0-0.75,0.29c-0.13,0.29,0,0.62,0.29,0.75c1.1,0.49,1.64,1.29,1.64,1.3
						C277.44,191.76,277.62,191.85,277.81,191.85z"/>
				</g>
			</g>
			<g>
				<path class="st7" d="M235.83,185.13c0,0-3.69-4.92-6.44-0.85c-2.75,4.07,1.14,16.09,7.86,13.16L235.83,185.13z"/>
				<g>
					<path class="st8" d="M235.78,193.72c-0.25,0-0.48-0.16-0.55-0.41c-1.04-3.71-4.89-5.22-4.93-5.23
						c-0.29-0.11-0.44-0.44-0.33-0.73c0.11-0.29,0.44-0.44,0.73-0.33c0.18,0.07,4.42,1.71,5.62,5.99c0.08,0.3-0.09,0.62-0.39,0.7
						C235.89,193.71,235.84,193.72,235.78,193.72z"/>
				</g>
				<g>
					<g>
						<path class="st8" d="M231.9,191.85c-0.11,0-0.21-0.03-0.31-0.09c-0.26-0.17-0.34-0.52-0.17-0.79
							c0.03-0.04,0.71-1.08,2.13-1.72c0.29-0.13,0.62,0,0.75,0.29c0.13,0.29,0,0.62-0.29,0.75c-1.1,0.49-1.64,1.29-1.64,1.3
							C232.27,191.76,232.09,191.85,231.9,191.85z"/>
					</g>
				</g>
			</g>
			<path class="st6" d="M245.77,207.63v11.96c0,0,3.57,6.09,8.39,6.5c4.82,0.42,9.1-5.24,9.1-5.24v-12.38L245.77,207.63z"/>
			<path class="st7" d="M245.77,207.63v5.31c3.24,3.59,8.98,4.49,17.49,3.23v-7.7L245.77,207.63z"/>
			<path class="st6" d="M233.17,176.93c0.22,4.65,0.66,10.46,1.55,15.1v0.01c0,0.01,0,0.03,0.01,0.04c0,0,0,0,0,0.01
				c0.22,1.13,0.46,2.2,0.73,3.16c0.16,0.56,0.33,1.15,0.53,1.75c2.83,8.89,9.4,21.76,25.9,15.87c6.95-2.48,10.57-9.65,12.41-17.44
				c0.11-0.46,0.21-0.92,0.3-1.37c0.06-0.29,0.12-0.58,0.17-0.86l0.08-0.42c0.01-0.07,0.02-0.12,0.03-0.15c0-0.02,0-0.03,0-0.03
				c1.09-5.99,1.25-12.04,1.17-16.36c-0.08-4.41-2.49-8.44-6.33-10.62c-10.4-5.9-21.37-3.7-28.6-0.92
				C236.12,166.64,232.91,171.57,233.17,176.93z"/>
			<path class="st5" d="M234.71,192.03c0,0,0,0,0,0.01c0,0.01,0,0.03,0.01,0.04c0,0,0,0,0,0.01c0.11,0.39,0.69,2.52,1.26,4.91
				c2.83,8.89,9.4,21.76,25.9,15.87c6.95-2.48,10.57-9.65,12.41-17.44c0.11-0.46,0.21-0.92,0.3-1.37c0.06-0.29,0.12-0.58,0.17-0.86
				l0.08-0.42c0.01-0.07,0.02-0.12,0.03-0.15c0-0.02,0-0.03,0-0.03l-2.43-0.49c-0.46,2.3-1.49,4.46-2.75,6.39
				c-2.05-4.92-12.47-1.65-12.47-1.65l-0.05,0.02c-0.63,0.2-1.29,0.3-1.94,0.3c-0.67,0-1.34-0.11-2-0.32c0,0-10.29-3.41-12.43,1.28
				c-2.13-3.3-3.58-6.3-3.58-6.3L234.71,192.03L234.71,192.03z M255.22,199.09c11.78-1.59,9.93,4.75,9.93,4.75
				c-1.31,1.19-2.5,2.06-3.31,2.51c-2.57,1.43-5.1,1.98-6.94,1.89c-1.81-0.08-2.3,0.29-6.87-2.18c-0.81-0.43-1.62-1.08-2.42-1.84
				c0,0,0,0,0,0v0C245.41,202.99,243.41,197.06,255.22,199.09z"/>
			<path class="st5" d="M244.55,185.57c0,1.28,0.66,2.31,1.47,2.31c0.81,0,1.47-1.03,1.47-2.31c0-1.28-0.66-2.31-1.47-2.31
				C245.21,183.26,244.55,184.3,244.55,185.57z"/>
			<path class="st5" d="M262.92,185.57c0,1.28,0.66,2.31,1.47,2.31c0.81,0,1.47-1.03,1.47-2.31c0-1.28-0.66-2.31-1.47-2.31
				C263.57,183.26,262.92,184.3,262.92,185.57z"/>
			<path class="st5" d="M240.79,177.78c0,0,6.07-2.4,10.75-0.38l-0.47,2.6c0,0-6.86-0.58-10.32,0.82
				C240.44,179.82,240.39,178.81,240.79,177.78z"/>
			<path class="st5" d="M269.65,177.79c0,0-6.12-2.42-10.82-0.38l0.47,2.62c0,0,6.91-0.58,10.39,0.83
				C270.01,179.85,270.05,178.83,269.65,177.79z"/>
			<g>
				<g>
					<path class="st7" d="M254.66,195.9c-0.96,0-1.91-0.37-2.06-0.43c-0.29-0.12-0.43-0.45-0.31-0.74c0.12-0.29,0.45-0.43,0.74-0.31
						c0.51,0.21,1.74,0.53,2.28,0.22c0.1-0.06,0.24-0.18,0.28-0.53c0.21-1.98-0.34-8.63-0.34-8.7c-0.03-0.31,0.21-0.59,0.52-0.61
						c0.31-0.03,0.59,0.21,0.61,0.52c0.02,0.28,0.56,6.82,0.34,8.91c-0.08,0.79-0.49,1.19-0.83,1.39
						C255.53,195.83,255.09,195.9,254.66,195.9z"/>
				</g>
			</g>
			<path class="st0" d="M261.9,200.23c-0.43,2.17-1.86,6.16-6.69,6.16c-4.84,0-6.2-3.65-6.66-6.16H261.9z"/>
			<path class="st5" d="M233.16,176.93c0.22,4.65,0.66,10.46,1.55,15.1l2.54-0.18c0,0-0.62-3.92-0.9-6.48
				c-0.28-2.56-0.77-7.33,1.41-7.93c2.18-0.59,0.9-6.04,3.93-8.4c3.03-2.37,9.8-3.02,14.26-0.27c4.46,2.74,9.5-0.21,11.55,0.27
				c2.06,0.47,4.86,3.31,4.1,5.96c-0.76,2.65,1.51,4.26,2.06,7c0.55,2.74-1.21,10.13-1.21,10.13l2.43,0.49
				c1.09-5.99,1.26-12.04,1.18-16.36c-0.08-4.41-2.49-8.45-6.33-10.62c-10.4-5.9-21.37-3.7-28.6-0.92
				C236.12,166.65,232.91,171.57,233.16,176.93z"/>
		</g>
	</g>
	<g>
		<g>
			<g>
				<g>
					<g>
						<path class="st3" d="M337.68,304.86c-1.54,14.08-10.74,45.54-17.1,51.7c-8.29,8.02-35.56,24.91-49.77,33.57
							c-2.56,1.56,9.48,11.97,9.48,11.97s37.72-16.13,52.13-28.85c4.08-3.6,12.35-14.95,21.69-36.56c2.83-6.55,9.7-19.77,9.34-28.39
							C363.03,298.39,347.28,300.02,337.68,304.86z"/>
					</g>
				</g>
				<path class="st6" d="M308.25,385.76c0,0-10.26,3.9-13.9,8.18c-3.64,4.29-8.44,7.92-7.27,9.61c1.17,1.69,6.49-3.25,6.49-3.25
					s1.46,5.42,6.62,6.01c5.16,0.59,14.93-9.52,14.93-9.52L308.25,385.76z"/>
				<g>
					<g>
						<path class="st2" d="M409.52,344.18c0,0.89-0.01,1.95-0.02,3.14c-0.02,1.19-0.04,2.52-0.08,3.97
							c-0.03,0.99-0.06,2.05-0.1,3.15c-0.03,0.93-0.07,1.89-0.11,2.89c-0.04,1.02-0.09,2.07-0.14,3.16
							c-0.71,14.75-2.44,35.11-6.24,51.44h-79.82c2.66-11.86,6.74-30.58,9.97-54.86c0.14-1.02,0.27-2.05,0.4-3.09
							c0.13-1.04,0.26-2.09,0.39-3.15c0.07-0.56,0.14-1.13,0.21-1.7c0.05-0.47,0.11-0.94,0.16-1.4c0.15-1.31,0.28-2.6,0.4-3.86
							c0.1-1.05,0.19-2.09,0.28-3.11c1.37-16.32,0.89-28.56,2.85-35.89c2.29-8.53,29-18.31,29-18.31l16.73,0.88
							c0,0,15.96,5.21,24.49,12.7c8.53,7.49,1.4,29.84,1.61,42.53C409.52,343.1,409.52,343.61,409.52,344.18z"/>
						<g>
							<path class="st1" d="M409.5,347.32c-7.26,0.88-14.83,1.23-22.26,1.23c-24.33,0-47.17-3.72-52.7-4.69
								c0.1-1.05,0.19-2.09,0.28-3.11c6.43,1.14,43.61,7.29,74.69,3.43C409.52,345.07,409.52,346.13,409.5,347.32z"/>
						</g>
						<g>
							<path class="st1" d="M409.42,351.29c-0.03,0.99-0.06,2.05-0.1,3.15c-7.21,0.86-14.71,1.21-22.08,1.21
								c-25.7,0-49.74-4.15-53.47-4.82c0.07-0.56,0.14-1.13,0.21-1.7c0.05-0.47,0.11-0.94,0.16-1.4
								C337.84,348.4,376.94,355.3,409.42,351.29z"/>
						</g>
						<g>
							<path class="st1" d="M409.22,357.34c-0.04,1.02-0.09,2.07-0.14,3.16c-7.5,0.95-15.35,1.32-23.04,1.32
								c-24.89,0-48.21-3.89-53.05-4.75c0.14-1.02,0.27-2.05,0.4-3.09C339.15,355,377.56,361.48,409.22,357.34z"/>
						</g>
						<g>
							<path class="st3" d="M371.51,302.61c8.32,0,16-8.84,16.33-9.23c0.21-0.25,0.18-0.62-0.06-0.83
								c-0.25-0.21-0.62-0.18-0.83,0.06c-0.08,0.09-8.12,9.36-16.16,8.8c-0.32-0.02-0.6,0.22-0.63,0.55
								c-0.02,0.32,0.22,0.6,0.54,0.63C370.98,302.6,371.25,302.61,371.51,302.61z"/>
						</g>
						<g>
							<path class="st3" d="M378.73,402.08c0.29,0,0.55-0.22,0.58-0.52c0.04-0.32-0.19-0.61-0.52-0.65
								c-21.49-2.47-30.4-39.68-30.49-40.05c-0.07-0.32-0.39-0.51-0.7-0.44c-0.32,0.07-0.51,0.39-0.44,0.7
								c0.36,1.57,9.19,38.39,31.5,40.96C378.68,402.08,378.7,402.08,378.73,402.08z"/>
						</g>
						<g>
							<path class="st3" d="M370.17,390.82c0.2,0,0.39-0.1,0.5-0.28c0.17-0.28,0.08-0.64-0.19-0.81
								c-11.43-7.05-13.13-17.44-13.15-17.54c-0.05-0.32-0.35-0.54-0.67-0.49c-0.32,0.05-0.54,0.35-0.49,0.67
								c0.07,0.45,1.78,11.02,13.69,18.37C369.95,390.79,370.06,390.82,370.17,390.82z"/>
						</g>
					</g>
					<g>
						<circle class="st5" cx="376.84" cy="247.88" r="23.55"/>
						<path class="st5" d="M353.68,243.66c0,0-6.67-1.84-5.79-8.31c0.75-5.51,7.22-1.94,6.65-6.24c-0.57-4.31-1.83-8.22,3.74-9.3
							c4.87-0.94,4.95,2.4,11.35-2.45c7.56-5.72,13.36,7.53,20.11,7.93c9.95,0.59,11.2,6.21,12.18,10.71
							c0.98,4.5-2.85,7.66-2.85,7.66H353.68z"/>
						<g>
							<path class="st7" d="M357.25,254.47c0,0-3.73-4.97-6.5-0.86c-2.77,4.11,1.15,16.26,7.94,13.29L357.25,254.47z"/>
							<g>
								<path class="st8" d="M357.2,263.15c-0.25,0-0.48-0.17-0.55-0.42c-1.05-3.75-4.94-5.27-4.98-5.28
									c-0.3-0.11-0.44-0.44-0.33-0.74c0.11-0.3,0.44-0.45,0.74-0.33c0.18,0.07,4.46,1.73,5.68,6.05c0.09,0.31-0.09,0.62-0.4,0.71
									C357.31,263.14,357.25,263.15,357.2,263.15z"/>
							</g>
							<g>
								<g>
									<path class="st8" d="M353.28,261.26c-0.11,0-0.21-0.03-0.31-0.09c-0.27-0.17-0.34-0.53-0.17-0.79
										c0.03-0.04,0.72-1.09,2.15-1.74c0.29-0.13,0.63,0,0.76,0.29c0.13,0.29,0,0.63-0.29,0.76c-1.11,0.5-1.65,1.3-1.66,1.31
										C353.65,261.17,353.47,261.26,353.28,261.26z"/>
								</g>
							</g>
						</g>
						<path class="st6" d="M384.3,277.2v12.08c0,0-4.97,5.32-9.84,5.74c-4.87,0.42-7.83-5.36-7.83-5.36v-11.61L384.3,277.2z"/>
						<path class="st7" d="M384.3,277.2v5.36c-3.27,3.63-9.07,4.53-17.66,3.27v-7.78L384.3,277.2z"/>
						<path class="st6" d="M397.04,246.18c-0.22,4.69-0.67,10.56-1.57,15.26c-0.22,1.17-0.48,2.27-0.76,3.26
							c-2.54,8.9-8.9,24.16-26.7,17.81c-7.86-2.81-11.51-11.56-13.13-20.47c-1.1-6.05-1.27-12.16-1.19-16.53
							c0.09-4.46,2.52-8.53,6.4-10.73c10.51-5.96,21.59-3.74,28.89-0.93C394.05,235.8,397.29,240.77,397.04,246.18z"/>
						<g>
							<g>
								<g>
									<g>
										<g>
											<path class="st5" d="M375.68,254.71v0.95c0,1.92,0.75,3.72,2.11,5.07c1.34,1.33,3.11,2.06,5,2.06h0.23
												c1.64-0.03,3.12-0.69,4.42-1.96c1.31-1.27,2.05-3.1,2.05-5.01v-1.13c0-0.31-0.06-0.61-0.17-0.89
												c-0.12-0.34-0.32-0.63-0.57-0.88c-0.45-0.45-1.08-0.73-1.77-0.73h-8.81c-1,0-1.86,0.58-2.26,1.43
												c-0.15,0.31-0.24,0.65-0.24,1.01C375.68,254.67,375.68,254.69,375.68,254.71z M376.72,254.71c0-0.81,0.66-1.47,1.47-1.47
												H387c0.81,0,1.47,0.65,1.47,1.47v1.13c0,1.63-0.63,3.18-1.74,4.26c-1.11,1.07-2.36,1.63-3.72,1.66h-0.21
												c-1.61,0-3.12-0.62-4.27-1.76c-1.16-1.15-1.8-2.69-1.8-4.33V254.71z"/>
										</g>
									</g>
								</g>
								<g>
									<g>
										<g>
											<path class="st5" d="M358.04,254.71v0.95c0,1.92,0.75,3.72,2.11,5.07c1.34,1.33,3.11,2.06,5,2.06h0.24
												c1.63-0.03,3.12-0.69,4.42-1.96c1.31-1.27,2.06-3.1,2.06-5.01v-1.13c0-0.02,0-0.03,0-0.05c0-0.34-0.08-0.66-0.21-0.96
												c-0.39-0.88-1.27-1.5-2.29-1.5h-8.81c-0.77,0-1.47,0.35-1.93,0.9c-0.22,0.27-0.39,0.59-0.48,0.93
												C358.07,254.26,358.04,254.48,358.04,254.71z M359.08,254.71c0-0.81,0.66-1.47,1.47-1.47h8.81
												c0.81,0,1.47,0.65,1.47,1.47v1.13c0,1.63-0.64,3.18-1.74,4.26c-1.1,1.07-2.36,1.63-3.72,1.66h-0.21
												c-1.61,0-3.12-0.62-4.26-1.76c-1.16-1.15-1.8-2.69-1.8-4.33V254.71z"/>
										</g>
									</g>
								</g>
								<g>
									<g>
										<path class="st5" d="M395.78,251.79c-2.99-0.13-5.13,0.73-5.97,1.15c-0.24,0.11-0.87,0.52-0.89,0.54l0.49,0.88
											c0.01,0,0.7-0.42,0.97-0.54c0.83-0.39,2.67-1.16,5.41-1V251.79z"/>
									</g>
								</g>
								<g>
									<g>
										<path class="st5" d="M376.38,254.75l0.34-0.98c-0.06-0.02-1.52-0.52-3.12-0.52c-1.71,0-2.8,0.52-2.85,0.55l0.45,0.93
											c0.01,0,0.94-0.44,2.4-0.44C375.02,254.29,376.37,254.75,376.38,254.75z"/>
									</g>
								</g>
								<g>
									<g>
										<path class="st5" d="M354.4,252.04v1.04c2.15,0.18,4.14,1.14,4.17,1.15l0.46-0.93
											C358.91,253.24,356.78,252.21,354.4,252.04z"/>
									</g>
								</g>
							</g>
						</g>
						<path class="st5" d="M366.2,256.05c0,1.29-0.66,2.33-1.48,2.33c-0.82,0-1.48-1.05-1.48-2.33c0-1.29,0.66-2.33,1.48-2.33
							C365.53,253.71,366.2,254.76,366.2,256.05z"/>
						<path class="st5" d="M383.58,256.05c0,1.29-0.66,2.33-1.48,2.33c-0.82,0-1.48-1.05-1.48-2.33c0-1.29,0.66-2.33,1.48-2.33
							C382.91,253.71,383.58,254.76,383.58,256.05z"/>
						<path class="st5" d="M359.89,248.88c0,0,6.18-2.44,10.94-0.39l-0.4,2.21c0,0-5.15-1.15-10.2,0.73
							C359.91,250.41,359.48,249.92,359.89,248.88z"/>
						<path class="st5" d="M388.16,248.88c0,0-6.18-2.44-10.94-0.39l0.4,2.21c0,0,5.15-1.15,10.2,0.73
							C388.13,250.41,388.56,249.92,388.16,248.88z"/>
						<g>
							<g>
								<path class="st7" d="M374.31,265.83c0.97,0,1.93-0.38,2.08-0.44c0.29-0.12,0.43-0.45,0.31-0.75
									c-0.12-0.29-0.45-0.43-0.75-0.31c-0.52,0.21-1.76,0.54-2.3,0.22c-0.1-0.06-0.25-0.19-0.28-0.53c-0.21-2,0.34-8.72,0.35-8.79
									c0.03-0.32-0.21-0.59-0.52-0.62c-0.32-0.03-0.59,0.21-0.62,0.52c-0.02,0.28-0.56,6.89-0.34,9c0.08,0.79,0.5,1.2,0.83,1.4
									C373.43,265.75,373.88,265.83,374.31,265.83z"/>
							</g>
						</g>
						<path class="st0" d="M367.2,268.74c0.47,2.36,2.03,6.7,7.28,6.7c5.26,0,6.74-3.97,7.25-6.7H367.2z"/>
						<g>
							<path class="st7" d="M374.41,278.44c1.49,0,2.74-0.75,2.8-0.78c0.27-0.16,0.36-0.52,0.19-0.79
								c-0.16-0.27-0.52-0.36-0.79-0.19c-0.01,0.01-1.05,0.62-2.2,0.62c-1.06,0-2.08-0.61-2.09-0.62c-0.27-0.17-0.62-0.08-0.79,0.19
								c-0.17,0.27-0.08,0.62,0.19,0.79C371.77,277.68,373.01,278.44,374.41,278.44z"/>
						</g>
						<path class="st5" d="M356.66,258.3c-0.43-2.37-0.86-5.42-0.55-6.99c0.56-2.77,2.85-4.4,2.09-7.07
							c-0.76-2.68,2.06-5.55,4.14-6.03c2.08-0.48,6.94,0.55,11.72-1.72c4.56-2.17,12.5-0.62,13.79,2.31
							c1.56,3.55-0.56,3.88,3.71,7.72c1.7,1.53-0.32,5.5-0.61,8.08c-0.13,1.19-0.15,1.77-0.1,3.04l0.02,0.65h5.11
							c0.56-4,0.89-8.42,1.06-12.12c0.26-5.41-2.99-10.38-8.05-12.33c-7.3-2.81-18.38-5.03-28.89,0.93
							c-3.88,2.2-6.31,6.27-6.39,10.73c-0.07,3.46,0.03,8.03,0.62,12.79H356.66z"/>
						<g>
							<path class="st6" d="M393.71,260.51c-0.02-1.34,0.08-2.67,0.31-3.99c0.32-1.8,0.84-3.43,2.68-4.18
								c1.48-0.6,3.06-0.62,4.19,1.05c2.77,4.11-0.32,16.91-7.11,13.94L393.71,260.51z"/>
							<g>
								<g>
									<path class="st7" d="M395.11,263.6c0.25-0.05,0.44-0.26,0.46-0.52c0.3-3.88,3.81-6.13,3.85-6.16
										c0.27-0.17,0.35-0.52,0.18-0.79c-0.17-0.27-0.52-0.35-0.79-0.18c-0.16,0.1-4.04,2.57-4.38,7.04
										c-0.02,0.32,0.21,0.59,0.53,0.62C395,263.62,395.06,263.61,395.11,263.6z"/>
								</g>
							</g>
							<g>
								<g>
									<path class="st7" d="M398.58,260.98c0.1-0.02,0.2-0.07,0.29-0.15c0.23-0.22,0.23-0.58,0.01-0.81
										c-0.04-0.04-0.92-0.93-2.45-1.28c-0.31-0.07-0.62,0.12-0.69,0.43c-0.07,0.31,0.12,0.62,0.43,0.69
										c1.19,0.27,1.88,0.95,1.88,0.96C398.2,260.97,398.4,261.02,398.58,260.98z"/>
								</g>
							</g>
						</g>
					</g>
				</g>
				<g>
					<path class="st3" d="M404.51,297.51c-8.39,12.71-40.48,56.66-47.72,61.76c-9.43,6.65-35.13,16.1-49.88,25.95
						c-5.01,3.35,6.83,12.82,6.83,12.82s35.97-10.11,52.16-20.45c4.58-2.92,23.64-22.02,35.79-38.95
						c4.16-5.8,10.93-13.86,11.91-22.43C414.73,306.35,411.63,301.07,404.51,297.51z"/>
				</g>
			</g>
		</g>
		<g>
			<path class="st10" d="M340.9,411.93h-99.98c-1.28,0-2.31-1.04-2.31-2.31v-7.97c0-1.28,1.04-2.31,2.31-2.31h99.98
				c1.28,0,2.31,1.04,2.31,2.31v7.97C343.21,410.89,342.17,411.93,340.9,411.93z"/>
			<path class="st5" d="M238.62,411.93l-19.66-73.64c-1.1-4.14,2.01-8.19,6.29-8.19h43.27c2.92,0,5.48,1.94,6.27,4.75l21.65,77.08
				H238.62z"/>
			<path class="st10" d="M274.79,334.85l21.47,76.45h4.94l-21.47-76.45c-0.8-2.81-3.35-4.76-6.27-4.76h-4.94
				C271.44,330.09,274,332.04,274.79,334.85z"/>
			<path class="st11" d="M263.67,374.31c1.12,4.86-1.9,8.79-6.76,8.79c-4.86,0-9.71-3.94-10.83-8.79c-1.12-4.86,1.9-8.79,6.76-8.79
				C257.7,365.52,262.55,369.45,263.67,374.31z"/>
		</g>
	</g>
	<g>
		<g>
			<g>
				<g>
					<path class="st3" d="M397.75,140.71c-3.64,0-6.6-2.96-6.6-6.6s2.96-6.6,6.6-6.6c3.64,0,6.6,2.96,6.6,6.6
						S401.39,140.71,397.75,140.71z M397.75,129.57c-2.5,0-4.53,2.03-4.53,4.53c0,2.5,2.03,4.53,4.53,4.53
						c2.5,0,4.53-2.03,4.53-4.53C402.28,131.6,400.25,129.57,397.75,129.57z"/>
				</g>
				<g>
					<path class="st2" d="M421.52,163.87c-3.64,0-6.6-2.96-6.6-6.6c0-3.64,2.96-6.6,6.6-6.6c3.64,0,6.6,2.96,6.6,6.6
						C428.12,160.91,425.16,163.87,421.52,163.87z M421.52,152.74c-2.5,0-4.53,2.03-4.53,4.53c0,2.5,2.03,4.53,4.53,4.53
						c2.5,0,4.53-2.03,4.53-4.53C426.05,154.77,424.02,152.74,421.52,152.74z"/>
				</g>
				<g>
					<g>
						<g>
							<path class="st3" d="M429.68,185.33c-0.57,0-1.04-0.46-1.04-1.04v-4.57c0-0.57,0.46-1.04,1.04-1.04
								c0.57,0,1.04,0.46,1.04,1.04v4.57C430.71,184.87,430.25,185.33,429.68,185.33z"/>
						</g>
						<g>
							<path class="st3" d="M429.68,193.32c-0.57,0-1.04-0.46-1.04-1.04v-4.57c0-0.57,0.46-1.04,1.04-1.04
								c0.57,0,1.04,0.46,1.04,1.04v4.57C430.71,192.86,430.25,193.32,429.68,193.32z"/>
						</g>
					</g>
					<g>
						<g>
							<path class="st3" d="M436.09,187.04h-4.1c-0.57,0-1.04-0.46-1.04-1.04c0-0.57,0.46-1.04,1.04-1.04h4.1
								c0.57,0,1.04,0.46,1.04,1.04C437.12,186.58,436.66,187.04,436.09,187.04z"/>
						</g>
						<g>
							<path class="st3" d="M427.37,187.04h-4.1c-0.57,0-1.04-0.46-1.04-1.04c0-0.57,0.46-1.04,1.04-1.04h4.1
								c0.57,0,1.04,0.46,1.04,1.04C428.4,186.58,427.94,187.04,427.37,187.04z"/>
						</g>
					</g>
				</g>
				<g>
					<g>
						<g>
							<g>
								<path class="st4" d="M393.21,159.73c-0.57,0-1.04-0.46-1.04-1.04v-4.57c0-0.57,0.46-1.04,1.04-1.04
									c0.57,0,1.04,0.46,1.04,1.04v4.57C394.25,159.27,393.79,159.73,393.21,159.73z"/>
							</g>
							<g>
								<path class="st4" d="M393.21,167.73c-0.57,0-1.04-0.46-1.04-1.04v-4.57c0-0.57,0.46-1.04,1.04-1.04
									c0.57,0,1.04,0.46,1.04,1.04v4.57C394.25,167.26,393.79,167.73,393.21,167.73z"/>
							</g>
						</g>
						<g>
							<g>
								<path class="st4" d="M399.63,161.45h-4.1c-0.57,0-1.04-0.46-1.04-1.04c0-0.57,0.46-1.04,1.04-1.04h4.1
									c0.57,0,1.04,0.46,1.04,1.04C400.66,160.98,400.2,161.45,399.63,161.45z"/>
							</g>
							<g>
								<path class="st4" d="M390.91,161.45h-4.1c-0.57,0-1.04-0.46-1.04-1.04c0-0.57,0.46-1.04,1.04-1.04h4.1
									c0.57,0,1.04,0.46,1.04,1.04C391.94,160.98,391.48,161.45,390.91,161.45z"/>
							</g>
						</g>
					</g>
				</g>
			</g>
		</g>
		<g>
			<g>
				<g>
					<path class="st3" d="M91.3,110.39c0-3.64,2.96-6.6,6.6-6.6c3.64,0,6.6,2.96,6.6,6.6s-2.96,6.6-6.6,6.6
						C94.26,116.99,91.3,114.03,91.3,110.39z M93.37,110.39c0,2.5,2.03,4.53,4.53,4.53c2.5,0,4.53-2.03,4.53-4.53
						c0-2.5-2.03-4.53-4.53-4.53C95.4,105.86,93.37,107.89,93.37,110.39z"/>
				</g>
				<g>
					<path class="st2" d="M64.78,135.56c0-3.64,2.96-6.6,6.6-6.6c3.64,0,6.6,2.96,6.6,6.6s-2.96,6.6-6.6,6.6
						C67.74,142.16,64.78,139.2,64.78,135.56z M66.85,135.56c0,2.5,2.03,4.53,4.53,4.53c2.5,0,4.53-2.03,4.53-4.53
						c0-2.5-2.03-4.53-4.53-4.53C68.88,131.03,66.85,133.06,66.85,135.56z"/>
				</g>
				<g>
					<g>
						<g>
							<path class="st3" d="M51.05,144.82c0.57,0,1.04-0.46,1.04-1.04v-4.57c0-0.57-0.46-1.04-1.04-1.04
								c-0.57,0-1.04,0.46-1.04,1.04v4.57C50.01,144.36,50.48,144.82,51.05,144.82z"/>
						</g>
						<g>
							<path class="st3" d="M51.05,152.82c0.57,0,1.04-0.46,1.04-1.04v-4.57c0-0.57-0.46-1.04-1.04-1.04
								c-0.57,0-1.04,0.46-1.04,1.04v4.57C50.01,152.35,50.48,152.82,51.05,152.82z"/>
						</g>
					</g>
					<g>
						<g>
							<path class="st3" d="M44.64,146.54h4.1c0.57,0,1.04-0.46,1.04-1.04c0-0.57-0.46-1.04-1.04-1.04h-4.1
								c-0.57,0-1.04,0.46-1.04,1.04C43.6,146.07,44.07,146.54,44.64,146.54z"/>
						</g>
						<g>
							<path class="st3" d="M53.36,146.54h4.1c0.57,0,1.04-0.46,1.04-1.04c0-0.57-0.46-1.04-1.04-1.04h-4.1
								c-0.57,0-1.04,0.46-1.04,1.04C52.32,146.07,52.79,146.54,53.36,146.54z"/>
						</g>
					</g>
				</g>
				<g>
					<g>
						<g>
							<g>
								<path class="st4" d="M74.92,109.71c0.57,0,1.04-0.46,1.04-1.04v-4.57c0-0.57-0.46-1.04-1.04-1.04
									c-0.57,0-1.04,0.46-1.04,1.04v4.57C73.88,109.25,74.34,109.71,74.92,109.71z"/>
							</g>
							<g>
								<path class="st4" d="M74.92,117.7c0.57,0,1.04-0.46,1.04-1.04v-4.57c0-0.57-0.46-1.04-1.04-1.04
									c-0.57,0-1.04,0.46-1.04,1.04v4.57C73.88,117.24,74.34,117.7,74.92,117.7z"/>
							</g>
						</g>
						<g>
							<g>
								<path class="st4" d="M68.5,111.42h4.1c0.57,0,1.04-0.46,1.04-1.04s-0.46-1.04-1.04-1.04h-4.1c-0.57,0-1.04,0.46-1.04,1.04
									S67.93,111.42,68.5,111.42z"/>
							</g>
							<g>
								<path class="st4" d="M77.22,111.42h4.1c0.57,0,1.04-0.46,1.04-1.04s-0.46-1.04-1.04-1.04h-4.1c-0.57,0-1.04,0.46-1.04,1.04
									S76.65,111.42,77.22,111.42z"/>
							</g>
						</g>
					</g>
				</g>
			</g>
		</g>
		<g>
			<path class="st2" d="M346.03,117.4v20.11c0,2.66-2.16,4.81-4.81,4.81h-36.51l-11.02,3.95c-1.13,0.41-2.22-0.71-1.78-1.83
				l4.17-10.77V117.4c0-2.66,2.16-4.81,4.82-4.81h40.33C343.87,112.58,346.03,114.74,346.03,117.4z"/>
			<g class="st12">
				<path class="st1" d="M338.33,123.09h-33.49c-0.73,0-1.33-0.59-1.33-1.33l0,0c0-0.73,0.59-1.33,1.33-1.33h33.49
					c0.73,0,1.33,0.59,1.33,1.33l0,0C339.66,122.49,339.07,123.09,338.33,123.09z"/>
				<path class="st1" d="M338.33,128.44h-33.49c-0.73,0-1.33-0.59-1.33-1.33l0,0c0-0.73,0.59-1.33,1.33-1.33h33.49
					c0.73,0,1.33,0.59,1.33,1.33l0,0C339.66,127.84,339.07,128.44,338.33,128.44z"/>
				<path class="st1" d="M338.33,133.79h-33.49c-0.73,0-1.33-0.59-1.33-1.33l0,0c0-0.73,0.59-1.33,1.33-1.33h33.49
					c0.73,0,1.33,0.59,1.33,1.33l0,0C339.66,133.19,339.07,133.79,338.33,133.79z"/>
			</g>
		</g>
	</g>
	<g>
		<path class="st4" d="M453.72,419.45v0.72c0,4.14-3.36,7.51-7.51,7.51H56.78c-4.15,0-7.51-3.36-7.51-7.51v-0.72
			c0-4.14,3.36-7.51,7.51-7.51h389.43C450.36,411.94,453.72,415.31,453.72,419.45z"/>
		<path class="st3" d="M453.72,419.45v0.36H49.27v-0.36c0-4.14,3.36-7.51,7.51-7.51h389.43
			C450.36,411.94,453.72,415.31,453.72,419.45z"/>
	</g>
</g>
<g id="DESIGNED_BY_FREEPIK">
	<g>
		<g id="XMLID_1_">
			<g id="XMLID_20_">
				<path id="XMLID_28_" class="st13" d="M260.1,465.47c-0.43,0.44-0.8,0.93-1.11,1.45l-0.47-0.24c-0.07-0.3-0.35-0.5-0.66-0.47
					c-0.33,0.04-0.57,0.34-0.53,0.67c0.04,0.33,0.34,0.57,0.67,0.53c0.07-0.01,0.13-0.03,0.18-0.05l0.45,0.23
					c-0.25,0.55-0.43,1.14-0.54,1.74l0.75,0.13c0.23-1.31,0.85-2.51,1.79-3.47L260.1,465.47z"/>
				<path id="XMLID_27_" class="st13" d="M265.59,463.16c-0.17,0-0.34,0.01-0.51,0.02l-0.07-0.63c0.19-0.15,0.3-0.39,0.27-0.64
					c-0.05-0.39-0.4-0.67-0.8-0.63c-0.39,0.05-0.67,0.4-0.63,0.8c0.03,0.25,0.19,0.46,0.4,0.56l0.07,0.62
					c-0.71,0.12-1.4,0.33-2.06,0.65l0.33,0.68c0.93-0.45,1.94-0.67,3-0.67c0.5,0,0.99,0.05,1.48,0.16l0.16-0.74
					C266.69,463.22,266.14,463.16,265.59,463.16z"/>
				<path id="XMLID_26_" class="st13" d="M272.19,465.71c0.33-0.04,0.57-0.34,0.53-0.67c-0.04-0.33-0.34-0.57-0.67-0.53
					c-0.31,0.04-0.54,0.3-0.53,0.61l-0.42,0.36c-0.42-0.43-0.89-0.81-1.41-1.14l-0.4,0.64c1.13,0.71,2.02,1.73,2.56,2.93l0.69-0.31
					c-0.25-0.55-0.57-1.07-0.94-1.55l0.4-0.35C272.06,465.72,272.13,465.72,272.19,465.71z"/>
				<path id="XMLID_25_" class="st13" d="M265.04,473.37c-0.39,0.02-0.77,0.03-1.16,0.03c-0.88,0-1.73-0.06-2.48-0.18
					c-0.39-0.06-0.85-0.15-1.27-0.29c1.05,1.86,3.07,3.13,5.39,3.13c2.86,0,5.26-1.92,5.95-4.5c-0.68,0.45-1.51,0.83-2.46,1.12
					C267.84,473.05,266.46,473.29,265.04,473.37z"/>
				<path id="XMLID_21_" class="st13" d="M265.59,464.68c-3.35,0-6.08,2.67-6.08,5.94c0,0.43,0.05,0.85,0.14,1.26
					c0.67,0.48,2.71,0.89,5.35,0.73c2.88-0.17,5.3-0.96,6.67-2.16c-0.01-0.19-0.02-0.39-0.05-0.58
					C271.24,466.91,268.65,464.68,265.59,464.68z M263.43,471.19c-1.02,0-1.85-0.83-1.85-1.85c0-1.02,0.83-1.85,1.85-1.85
					c1.02,0,1.85,0.83,1.85,1.85C265.28,470.36,264.45,471.19,263.43,471.19z M268.17,470.29c-0.75,0-1.36-0.61-1.36-1.36
					s0.61-1.36,1.36-1.36c0.75,0,1.36,0.61,1.36,1.36S268.92,470.29,268.17,470.29z"/>
			</g>
			<path id="XMLID_18_" class="st13" d="M281.6,466.55c-0.29-0.12-0.81-0.31-1.38-0.24c-0.55,0.07-0.84,0.34-0.84,1.01v0.87h2.23
				v1.72h-2.23v5.45h-1.93v-5.45h-1.34v-1.72h1.34v-0.89c0-1.68,0.9-2.78,2.57-2.78c0.64,0,1.16,0.12,1.59,0.31L281.6,466.55z"/>
			<path id="XMLID_16_" class="st13" d="M286.3,469.88c-0.18-0.03-0.36-0.05-0.53-0.05c-0.9,0-1.51,0.55-1.51,1.61v3.91h-1.93v-7.17
				h1.87v0.78c0.45-0.67,1.14-0.98,2.02-0.98c0.41,0,0.85,0.13,1.09,0.34L286.3,469.88z"/>
			<path id="XMLID_13_" class="st13" d="M293.97,471.76c0,0.22-0.01,0.49-0.04,0.65h-5.08c0.21,1.04,0.93,1.49,1.84,1.49
				c0.62,0,1.3-0.25,1.81-0.69l1.13,1.24c-0.81,0.75-1.85,1.09-3.06,1.09c-2.2,0-3.72-1.5-3.72-3.75c0-2.26,1.48-3.8,3.63-3.8
				C292.54,467.99,293.96,469.52,293.97,471.76z M288.85,471.09h3.18c-0.18-0.92-0.73-1.44-1.56-1.44
				C289.55,469.65,289.02,470.2,288.85,471.09z"/>
			<path id="XMLID_10_" class="st13" d="M301.62,471.76c0,0.22-0.02,0.49-0.04,0.65h-5.08c0.21,1.04,0.93,1.49,1.84,1.49
				c0.62,0,1.3-0.25,1.81-0.69l1.13,1.24c-0.81,0.75-1.85,1.09-3.06,1.09c-2.2,0-3.72-1.5-3.72-3.75c0-2.26,1.48-3.8,3.63-3.8
				C300.2,467.99,301.61,469.52,301.62,471.76z M296.5,471.09h3.18c-0.18-0.92-0.73-1.44-1.56-1.44
				C297.21,469.65,296.67,470.2,296.5,471.09z"/>
			<path id="XMLID_7_" class="st13" d="M309.96,471.76c0,2.15-1.5,3.77-3.47,3.77c-0.96,0-1.64-0.38-2.11-0.93v3.71h-1.92v-10.13
				h1.89v0.79c0.47-0.58,1.15-0.98,2.14-0.98C308.47,467.99,309.96,469.61,309.96,471.76z M304.29,471.76
				c0,1.13,0.75,1.98,1.84,1.98c1.14,0,1.85-0.88,1.85-1.98c0-1.1-0.71-1.98-1.85-1.98C305.03,469.79,304.29,470.63,304.29,471.76z"
				/>
			<path id="XMLID_4_" class="st13" d="M313.07,465.84c0,0.7-0.54,1.23-1.24,1.23c-0.7,0-1.23-0.53-1.23-1.23
				c0-0.7,0.53-1.24,1.23-1.24C312.53,464.59,313.07,465.14,313.07,465.84z M312.81,475.35h-1.93v-7.17h1.93V475.35z"/>
			<path id="XMLID_2_" class="st13" d="M316.03,470.74l2.7-2.55h2.37l-3.48,3.38l3.5,3.8h-2.38l-2.72-2.9v2.9h-1.93V464.7h1.93
				V470.74z"/>
		</g>
		<g>
			<path class="st13" d="M184.41,475.29v-1.05c-0.53,0.72-1.39,1.23-2.39,1.23c-1.85,0-3.15-1.41-3.15-3.71
				c0-2.26,1.29-3.72,3.15-3.72c0.95,0,1.82,0.47,2.39,1.25v-3.76h1.1v9.77H184.41z M184.41,473.37v-3.21
				c-0.4-0.62-1.24-1.14-2.12-1.14c-1.42,0-2.27,1.17-2.27,2.74c0,1.57,0.85,2.72,2.27,2.72
				C183.17,474.48,184.02,473.99,184.41,473.37z"/>
			<path class="st13" d="M186.93,471.74c0-2.05,1.46-3.71,3.49-3.71c2.14,0,3.4,1.67,3.4,3.79v0.28h-5.73
				c0.09,1.33,1.03,2.45,2.55,2.45c0.81,0,1.63-0.32,2.18-0.89l0.53,0.72c-0.7,0.7-1.65,1.08-2.81,1.08
				C188.44,475.46,186.93,473.96,186.93,471.74z M190.4,468.95c-1.51,0-2.26,1.27-2.31,2.36h4.64
				C192.72,470.25,192.01,468.95,190.4,468.95z"/>
			<path class="st13" d="M194.61,474.35l0.57-0.79c0.47,0.54,1.36,1.01,2.33,1.01c1.08,0,1.67-0.51,1.67-1.22
				c0-1.71-4.38-0.66-4.38-3.28c0-1.1,0.95-2.04,2.64-2.04c1.2,0,2.05,0.45,2.62,1.03l-0.51,0.76c-0.42-0.51-1.2-0.89-2.11-0.89
				c-0.97,0-1.57,0.48-1.57,1.11c0,1.55,4.38,0.53,4.38,3.28c0,1.19-0.95,2.14-2.78,2.14C196.31,475.46,195.32,475.11,194.61,474.35
				z"/>
			<path class="st13" d="M201.48,466.47c0-0.41,0.34-0.75,0.73-0.75c0.41,0,0.75,0.34,0.75,0.75c0,0.41-0.34,0.73-0.75,0.73
				C201.81,467.2,201.48,466.88,201.48,466.47z M201.67,475.29v-7.07h1.1v7.07H201.67z"/>
			<path class="st13" d="M204.58,477.11l0.56-0.82c0.59,0.7,1.29,0.97,2.3,0.97c1.17,0,2.27-0.57,2.27-2.12v-1.01
				c-0.51,0.72-1.38,1.26-2.37,1.26c-1.85,0-3.15-1.38-3.15-3.66c0-2.27,1.29-3.68,3.15-3.68c0.95,0,1.8,0.47,2.37,1.25v-1.07h1.1
				v6.87c0,2.34-1.64,3.08-3.37,3.08C206.24,478.16,205.42,477.93,204.58,477.11z M209.71,473.25v-3.09
				c-0.38-0.62-1.23-1.14-2.11-1.14c-1.42,0-2.27,1.13-2.27,2.7c0,1.55,0.85,2.7,2.27,2.7
				C208.48,474.41,209.33,473.87,209.71,473.25z"/>
			<path class="st13" d="M217.41,475.29v-4.63c0-1.24-0.63-1.64-1.58-1.64c-0.86,0-1.68,0.53-2.09,1.1v5.17h-1.1v-7.07h1.1v1.03
				c0.5-0.59,1.46-1.2,2.52-1.2c1.48,0,2.26,0.75,2.26,2.29v4.97H217.41z"/>
			<path class="st13" d="M219.93,471.74c0-2.05,1.46-3.71,3.49-3.71c2.14,0,3.4,1.67,3.4,3.79v0.28h-5.73
				c0.09,1.33,1.03,2.45,2.55,2.45c0.81,0,1.63-0.32,2.18-0.89l0.53,0.72c-0.7,0.7-1.66,1.08-2.81,1.08
				C221.44,475.46,219.93,473.96,219.93,471.74z M223.4,468.95c-1.51,0-2.26,1.27-2.31,2.36h4.64
				C225.72,470.25,225.02,468.95,223.4,468.95z"/>
			<path class="st13" d="M233.35,475.29v-1.05c-0.53,0.72-1.39,1.23-2.39,1.23c-1.85,0-3.15-1.41-3.15-3.71
				c0-2.26,1.29-3.72,3.15-3.72c0.95,0,1.82,0.47,2.39,1.25v-3.76h1.1v9.77H233.35z M233.35,473.37v-3.21
				c-0.4-0.62-1.25-1.14-2.12-1.14c-1.42,0-2.27,1.17-2.27,2.74c0,1.57,0.85,2.72,2.27,2.72
				C232.1,474.48,232.95,473.99,233.35,473.37z"/>
			<path class="st13" d="M239.69,475.29v-9.77h1.1v3.76c0.57-0.78,1.42-1.25,2.39-1.25c1.85,0,3.15,1.46,3.15,3.72
				c0,2.3-1.3,3.71-3.15,3.71c-1,0-1.86-0.51-2.39-1.23v1.05H239.69z M242.9,474.48c1.44,0,2.29-1.16,2.29-2.72
				c0-1.57-0.85-2.74-2.29-2.74c-0.86,0-1.73,0.53-2.11,1.14v3.21C241.17,473.99,242.04,474.48,242.9,474.48z"/>
			<path class="st13" d="M247.53,477.06c0.16,0.07,0.43,0.12,0.6,0.12c0.48,0,0.81-0.16,1.05-0.75l0.47-1.07l-2.96-7.15h1.19
				l2.36,5.8l2.34-5.8h1.2l-3.54,8.51c-0.42,1.03-1.14,1.42-2.08,1.44c-0.23,0-0.6-0.04-0.81-0.1L247.53,477.06z"/>
		</g>
	</g>
</g>
</svg>
